<?xml version="1.0" encoding="UTF-8" standalone="no"?>
<!-- Created with Inkscape (http://www.inkscape.org/) -->

<svg
   version="1.1"
   id="svg1"
   width="368.50668"
   height="717.25336"
   viewBox="0 0 368.50668 717.25336"
   sodipodi:docname="big-chungus-free-vector-character.pdf"
   xmlns:inkscape="http://www.inkscape.org/namespaces/inkscape"
   xmlns:sodipodi="http://sodipodi.sourceforge.net/DTD/sodipodi-0.dtd"
   xmlns="http://www.w3.org/2000/svg"
   xmlns:svg="http://www.w3.org/2000/svg">
  <defs
     id="defs1" />
  <sodipodi:namedview
     id="namedview1"
     pagecolor="#ffffff"
     bordercolor="#000000"
     borderopacity="0.25"
     inkscape:showpageshadow="2"
     inkscape:pageopacity="0.0"
     inkscape:pagecheckerboard="0"
     inkscape:deskcolor="#d1d1d1">
    <inkscape:page
       x="0"
       y="0"
       inkscape:label="1"
       id="page1"
       width="368.50668"
       height="717.25336"
       margin="0"
       bleed="0" />
  </sodipodi:namedview>
  <g
     id="g1"
     inkscape:groupmode="layer"
     inkscape:label="1">
    <g
       id="group-R5">
      <path
         id="path2"
         d="m 1312.75,3717.41 c -2.28,25.35 -6.75,49.5 -6.07,73.49 1.02,36.2 7.46,72.24 8.38,108.43 2.25,88.96 4.74,178.01 3.21,266.96 -1.42,82.82 -5.9,165.71 -12.79,248.26 -5.34,63.8 -15.88,127.2 -25.17,190.63 -15.5,105.8 -37.28,210.3 -66.89,313.12 -31.44,109.17 -77.13,212.43 -129.95,312.66 -15.45,29.32 -32.51,57.86 -50.2,85.89 -4.33,6.85 -15.39,15.46 -21.07,14.05 -8.25,-2.06 -15.595,-11.66 -21.095,-19.59 -3.914,-5.64 -5.156,-13.74 -5.863,-20.91 -2.496,-25.35 -4.847,-50.74 -6.176,-76.18 -5.187,-99.39 -9.695,-198.81 -15.007,-298.2 -2.297,-43.07 -6.188,-86.06 -8.911,-129.12 -3.835,-60.65 -8.71,-121.29 -10.527,-182.01 -2.945,-98.17 -0.098,-196.17 10.453,-294.02 8.512,-78.88 22.024,-156.38 46.596,-231.96 23.26,-71.59 59.27,-137.35 90.95,-205.14 36.24,-77.54 61.28,-158.22 64.13,-244.69 0.49,-15.02 -1.39,-28.36 -10.52,-41.2 -8.1,-11.41 -14.41,-24.4 -19.77,-37.41 -34.61,-83.95 -42.46,-172.3 -39.95,-261.79 2.62,-93.6 7.66,-187.13 10.8,-280.71 0.5,-14.81 -3.63,-29.74 -5.19,-44.66 -0.43,-4.16 0.41,-8.52 1.14,-12.71 0.96,-5.52 3.66,-11.02 3.39,-16.42 -1.42,-29.36 -4.28,-58.67 -5.23,-88.05 -1.7,-52.7 -15.06,-100.97 -55.37,-137.27 C 971.969,2651.14 908.133,2592.99 841.352,2538.5 787.215,2494.34 728.676,2455.6 672.488,2413.92 583.777,2348.11 506.828,2269.96 433.664,2187.55 324.953,2065.11 253.773,1925.78 235.285,1761.52 c -0.875,-7.75 -4.344,-16.08 -9.004,-22.37 -12.769,-17.21 -14.207,-34.58 -5.082,-53.63 1.5,-3.13 1.563,-7.99 0.258,-11.23 -5.156,-12.82 -12.781,-24.86 -16.508,-38.03 -21.886,-77.36 -28.73,-155.6 -14.246,-235.47 14.867,-81.96 51.176,-153.23 105.102,-215.61 10.937,-12.65 10.578,-24.63 10.535,-38.8 -0.133,-44.1 -2.52,-88.5 1.605,-132.24 9.547,-101.21 40.996,-196.12 90.899,-284.808 55.719,-99.031 129.929,-182.422 216.129,-255.66 15.488,-13.152 31.324,-25.91 49.804,-41.16 -10.211,-5.5 -17.367,-12.25 -25.121,-13.032 -29.593,-2.98 -59.652,-7.441 -89.054,-5.148 -84.5,6.578 -168.719,16.727 -253.149,24.379 -49.441,4.48 -98.765,5.309 -146.48,-13.27 C 101.395,406.121 63.1992,372.031 70.5586,314.199 71.0039,310.73 68.6641,305.441 65.8555,303.27 31.1641,276.422 13.4883,239.75 4.03906,198.141 -11.5977,129.238 18.625,78.5313 86.6836,58.75 126.398,47.2109 166.824,44.9688 207.625,49.1406 c 15.938,1.6289 30.707,3.8282 40.965,-12.6601 2.648,-4.2422 8.137,-6.9492 12.687,-9.7696 43.883,-27.281213 92.567,-29.33981 141.754,-24.89059 53.324,4.8086 100.957,28.49999 149.817,48.19139 54.093,21.8086 107.855,45.5196 163.718,61.5973 77.293,22.25 156.883,36.422 234.594,57.36 54.46,14.672 108.48,32.312 160.73,53.441 39.08,15.809 70.9,43.981 77.53,89.129 3.02,20.57 -1.08,42.172 -2,64.633 59.65,15.207 122.28,31.16 185.54,47.289 8.61,-19.91 20.33,-36.379 39.3,-43.359 23.07,-8.493 47.1,-17.082 71.28,-19.211 36.45,-3.2 73.4,0.031 110.09,-1.012 91.17,-2.57 182.32,-5.508 273.45,-9.359 36.19,-1.528 72.45,-4.481 108.37,-9.18 66.49,-8.699 132.84,-12.621 198.97,1.238 40.83,8.551 80.56,20.391 112.45,49.82 3.57,3.282 9.58,4.293 14.66,5.512 14.2,3.41 28.99,4.988 42.69,9.801 42.86,15.051 79.76,39.141 99.87,81.281 24.22,50.77 3.8,118.719 -43.54,155.008 -4.61,3.531 -8.79,9.102 -10.6,14.582 -25.55,77.137 -76.44,99.828 -150.79,92.398 -4.89,-0.492 -9.76,-1.191 -17.52,-2.152 55.07,65.434 96.13,135.613 128.7,210.863 32.4,74.859 53.68,152.979 66.42,234.879 35.31,-20.61 61.93,0.23 89.15,16.64 26.98,-27.8 49.93,-34.48 78.01,-16.15 23.06,15.05 45.21,33.58 62.67,54.77 64.63,78.4 101.11,169.54 114.48,270.04 7.99,60.09 -0.54,116.17 -40.68,164.46 -2.16,2.59 -4.1,7.39 -3.19,10.19 5.17,15.77 0.56,29.89 -5.91,43.88 -11.7,25.25 -32.24,42.62 -52.89,60.06 -5.26,4.42 -9.86,10.63 -12.48,16.97 -14.78,35.54 -27.28,72.08 -43.44,106.94 -66.12,142.62 -160.3,266.01 -265.93,381.03 -83.6,91.03 -169.79,179.75 -244.78,278.3 -3.77,4.97 -5.65,13.3 -4.81,19.58 7.84,58.59 10.03,117.48 -1.2,175.46 -9.23,47.69 -24.29,94.25 -36.17,141.45 -1.66,6.59 -1.25,14.34 0.38,21.01 7.72,31.6 16.21,63.01 24.82,96.05 -0.62,-0.1 2.23,0.4 0.94,0.17 -10.77,18.22 -4.58,40.94 -12.78,60.1 5.09,2.47 8.86,4.3 15.5,7.51 -7.83,0 -12.11,0 -14.19,0 -13.12,25.25 -25.63,49.3 -38.31,73.67 3.36,2.73 8,6.52 12.65,10.31 -0.48,0.78 -0.96,1.56 -1.43,2.34 -5.82,-2.88 -11.65,-5.78 -17.26,-8.56 -30,30 -62.31,55.64 -101.49,70.69 -2.44,18.34 -3.33,37.13 -7.61,55.13 -17.77,74.77 -40.73,147.88 -73.55,217.62 -36.73,78.1 -83.66,147.09 -164.39,186.49 -2.97,1.44 -6.09,8.03 -5.2,11.07 9.93,34.09 16.29,70.14 31.98,101.48 43.98,87.93 65.81,181.39 75.17,277.94 6.91,71.16 10.93,142.78 12.21,214.26 1.68,94.14 1.64,188.44 -1.91,282.51 -2.68,70.9 -10.11,141.79 -18.96,212.25 -8.88,70.73 -19.87,141.37 -34.07,211.22 -14.56,71.56 -33.5,142.27 -51.73,213.04 -10.93,42.4 -23.91,84.29 -36.61,126.22 -2.79,9.17 -7.2,19.38 -19.57,18.65 -12.22,-0.71 -19.89,-9.09 -22.61,-20.05 -4.82,-19.39 -8.64,-39.08 -11.77,-58.83 -10.66,-67.56 -19.07,-135.54 -31.7,-202.73 -13.05,-69.46 -31.73,-137.86 -44.84,-207.31 -13.97,-73.97 -23.79,-148.71 -36.33,-222.96 -13.23,-78.34 -24.31,-157.03 -24.89,-236.44 -0.63,-84.37 2.22,-168.8 5.14,-253.15 2.62,-75.42 13.61,-149.86 30.93,-223.4 8.76,-37.15 16.74,-74.59 4.32,-112.79 -6.44,-19.81 -12.02,-39.91 -18.98,-63.17 -6.65,28.57 -6.65,28.57 -23.82,21.1 -1.9,10.97 -2.73,22.3 -6.05,32.84 -2.55,8.06 -8.25,15.13 -12.55,22.64 -4.14,-7.64 -9.65,-14.87 -12.1,-23.02 -3.75,-12.42 -5.39,-25.47 -7.93,-38.25 -0.98,0.11 -1.95,0.22 -2.93,0.33 -0.79,6.31 -1.57,12.63 -2.36,18.94 -1.16,0.46 -2.31,0.91 -3.48,1.37 -2.42,-3.84 -5.51,-7.43 -7.15,-11.58 -5.17,-13.14 -11.03,-26.2 -14.34,-39.84 -5.61,-23.15 -18.88,-35.85 -42.8,-38.13 -7.1,-0.68 -13.95,-4.06 -25.19,-7.52"
         style="fill:#fefefe;fill-opacity:1;fill-rule:nonzero;stroke:none"
         transform="matrix(0.13333333,0,0,-0.13333333,0,717.25333)" />
      <path
         id="path3"
         d="m 1330.56,3688.23 c 10.27,9.47 18.57,17.11 26.86,24.75 -0.99,1.43 -1.98,2.85 -2.97,4.28 -10.94,-3.33 -21.87,-6.66 -34.04,-10.36 3.36,-6.18 5.85,-10.76 10.15,-18.67 z m 444.91,-738.62 c 0,-31.54 0,-64.16 0,-97.6 15.97,0 31.36,0 48.32,0 3.16,29.14 6.19,56.99 8.88,81.77 -20.88,5.78 -38.82,10.75 -57.2,15.83 z m 284,93.58 c -2.21,15.88 -4.59,33.04 -7.11,51.17 -54.37,-13.06 -107.1,-25.73 -160.16,-38.47 2.73,-10.36 4.67,-17.74 5.91,-22.46 54.33,3.29 106.89,6.47 161.36,9.76 z m -159.22,257.25 c -15.11,58.57 -29.9,114.76 -53.64,169.6 -20.59,-31.05 -49.33,-108.19 -49.34,-131.77 38.87,2.71 69.21,-18.93 102.98,-37.83 z m -460.31,-34.27 c 36.94,31.97 75.26,54.96 125.47,55.98 -29.61,42.73 -64.57,73.43 -113.25,88.8 -21.82,-46.55 -16.14,-93.93 -12.22,-144.78 z m 376.66,60.02 c -14.44,0.92 -27.62,-1.53 -28.32,-17.18 -1.5,-33.21 -3.12,-66.77 0.07,-99.74 2.78,-28.83 30.07,-47.04 58.15,-44.43 9.6,0.89 17.55,3.97 22.24,13.91 10.83,22.91 22.55,45.4 33.81,68.12 5.23,10.57 2.15,36.06 -5.42,40.74 -15.29,9.45 -30.94,18.29 -47.91,28.25 1.86,-10.53 4.92,-19.15 4.6,-27.65 -0.78,-20.82 -2.02,-41.78 -5.55,-62.26 -0.95,-5.47 -10.47,-12.38 -16.72,-13.13 -5.27,-0.63 -13.22,5.51 -16.88,10.8 -4.82,6.98 -7.25,15.87 -9.57,24.26 -7.54,27.38 -1.33,53.11 11.5,78.31 z m 890.11,-1626.07 c 2.23,21.26 -6.31,36.27 -16.73,50.38 -44.89,60.83 -124.18,86.76 -199.26,64.75 -38.71,-11.33 -71.83,-30.84 -90.94,-68.4 -7.24,-14.23 -6.85,-20.55 -0.32,-34.13 44.37,38.89 99.42,44.69 154.65,47.94 58.85,3.45 108.18,-20.63 152.6,-60.54 z M 1595.48,3127.05 c 0.72,1.34 3.1,5.52 5.25,9.82 1.31,2.61 2.58,5.3 3.34,8.1 15.82,57.69 -0.82,109.86 -27.54,160.23 -1.08,2.05 -4.66,4.13 -6.92,3.98 -15.84,-1.02 -31.63,-2.63 -49,-4.19 4.96,-10.07 9.98,-16.71 11.54,-24.08 5.01,-23.66 9.59,-47.5 12.31,-71.51 0.61,-5.4 -5.84,-14.07 -11.26,-16.78 -3.44,-1.71 -13.3,3.35 -16.28,7.96 -10.24,15.83 -19.48,32.44 -27.58,49.48 -4.6,9.69 -6.23,20.8 -9.6,32.7 -11.1,-9.05 -21.66,-16.38 -30.46,-25.43 -3.99,-4.1 -6.76,-11.85 -6.13,-17.51 1.79,-15.98 5.16,-31.85 8.94,-47.51 1.07,-4.42 4.85,-10.02 8.79,-11.64 44.45,-18.16 89.19,-35.65 134.6,-53.62 z m 918.73,-1718.63 c 1.32,-0.75 2.65,-1.51 3.98,-2.26 -3.47,-30 -18.45,-55.81 -31.64,-82.09 -16.54,-32.95 -39.45,-60.64 -71.54,-80.02 -2.8,-1.68 -5.99,-5.39 -6.16,-8.31 -1.03,-18.82 16.39,-38.49 35.49,-37.49 11.61,0.61 24.01,4.83 34.19,10.67 34.88,19.98 66.34,45.64 87.87,79.17 24.09,37.52 42.36,78.77 63.21,118.38 1.33,2.52 3.01,4.85 4.54,7.27 -17.59,-77.94 -53.06,-144.83 -117.95,-193.15 12.68,-21.34 35.15,-29.13 56.93,-18.5 11.29,5.51 21.89,13.16 31.41,21.43 48.03,41.72 80.46,94.47 104.44,152.57 28.98,70.21 50.93,141.95 39.68,219.52 -5.78,39.88 -26.7,71.44 -54.56,100.23 -5.64,-21.74 -10.95,-42.23 -16.27,-62.7 -1.18,21.34 1.2,41.7 2.77,62.13 0.34,4.4 -0.81,10.94 -3.78,13.19 -11.34,8.57 -23.72,15.79 -34.54,22.77 -4.94,-32.3 -9.62,-62.85 -14.28,-93.39 -2.5,9.67 -2.17,18.96 -2.57,28.21 -0.93,21.49 -1.66,43.03 -3.79,64.42 -0.43,4.35 -6.11,10.75 -10.34,11.68 -17.35,3.79 -35.07,5.82 -53.81,8.68 13.36,-41.32 18.93,-80.28 9.54,-120.44 -5.01,40.13 -8.83,80.47 -25.15,118.19 -8.39,-0.88 -15.73,-1.23 -22.91,-2.5 -48.82,-8.7 -98.02,-15.69 -127.03,-64.71 -10.39,-17.57 -29.54,-24.52 -50.07,-21.26 -18.24,2.9 -36.3,7.45 -54.13,12.39 -27.71,7.68 -44.98,-0.59 -55.39,-27.76 -13.92,-36.3 -1.12,-77.65 32.42,-104.99 16.29,-13.27 35.26,-18.21 55.13,-13.12 15.39,3.94 29.86,11.6 44.59,17.96 25.77,11.12 37.23,4.92 38.95,-22.8 3.12,-49.81 -4.33,-97.23 -30.72,-141.02 -16.85,-27.98 -31.96,-57.2 -34.99,-90.72 -2.83,-31.39 22.42,-51.9 52.98,-43.2 28.44,8.1 49.78,27.34 64.59,50.83 19.69,31.18 34.46,65.46 51.44,98.37 2.2,4.26 4.97,8.25 7.47,12.37 z m -800.33,1665.02 c -3.75,-1.96 -7.49,-3.92 -11.24,-5.89 -2.26,21.83 -14.82,36.23 -35.71,38.59 -12.38,1.4 -25.58,-5.69 -38.58,-7.9 -5.85,-0.99 -13.04,-1.13 -18.08,1.4 -17,8.53 -33.02,19.01 -49.94,27.72 -55.51,28.54 -113.34,51.17 -175.95,56.6 -74.59,6.46 -143.42,-13.8 -206.68,-52.75 -17.39,-10.71 -32.72,-24.76 -49,-37.28 0.9,-1.44 1.8,-2.88 2.7,-4.32 13.11,5.42 26.21,10.84 41.11,17 -19.76,-25.45 -38.12,-49.08 -56.47,-72.72 0.96,-1.22 1.93,-2.43 2.89,-3.65 9.47,1.62 18.93,3.24 28.4,4.87 l 0.1,-0.12 c -11.23,-17.68 -22.68,-35.21 -33.58,-53.09 -4.54,-7.45 -7.88,-15.62 -11.76,-23.47 1.13,-0.84 2.25,-1.69 3.38,-2.54 10.56,3.84 21.12,7.68 29.01,10.56 -3.34,-11.66 -11.64,-24.83 -9.57,-36.1 10.29,-55.89 32.25,-106.6 75.36,-145.96 2.38,-2.18 4.36,-4.79 6.52,-7.2 -0.88,-1.13 -1.77,-2.25 -2.66,-3.38 -10.48,8.3 -20.96,16.59 -28.86,22.84 -10.21,-77.28 -18.87,-155.6 -31.18,-233.36 -23.07,-145.62 -70.4,-281.5 -157.672,-402.99 -70.547,-98.2 -136.371,-199.88 -202.105,-301.42 -27.54,-42.55 -49.438,-88.73 -73.899,-133.26 -16.535,-34.73 -33.223,-69.38 -49.488,-104.23 -4.817,-10.31 -8.414,-21.19 -13.531,-34.28 16.269,3.28 29.531,5.96 42.793,8.64 10.796,0.05 22.105,2.14 32.242,-0.41 10.758,-2.7 24.457,-7.19 29.832,-15.47 24.14,-37.19 22.238,-92.44 -28.196,-116.14 -13.726,-6.45 -30.089,-7.29 -45.242,-10.7 -18.344,2.44 -36.648,5.26 -55.047,7.21 -13.332,1.4 -21.027,-5.54 -19.886,-18.86 1.195,-13.99 3.476,-28.03 6.879,-41.65 15.757,-63.08 40.378,-122.58 73.66,-178.46 3.355,-24.58 6.711,-49.16 10.066,-73.75 -9.508,-26.29 -21.308,-38.26 -42.219,-34.61 -19.539,3.41 -38.031,12.86 -59.027,20.39 -4.352,-3.77 -11.203,-10.94 -19.254,-16.31 -7.516,-5 -10.289,-10.27 -8.949,-19.39 7.594,-51.82 11.414,-104.42 22.574,-155.42 24.363,-111.399 71.848,-212.809 149.426,-297.258 72.891,-79.332 156.183,-147.59 242.715,-211.66 58.628,-43.41 125.128,-58.153 196.258,-46.063 41.82,7.11 82.63,20.199 123.89,30.59 73.01,18.391 146.43,32.77 222.41,24.961 17.57,-1.801 35.28,-2.391 52.94,-3.012 91.97,-3.246 178.94,22.223 263.51,52.852 113.31,41.012 211.72,108.551 300.66,189.371 24.88,22.609 46.66,48.648 69.85,73.117 8.62,9.723 17.94,18.914 25.75,29.254 80.23,106.367 132.57,225.458 159.44,355.658 6.45,31.21 20.6,63.17 0.26,94.89 -50.47,-8.53 -80.44,23.3 -65.48,73.74 7.97,26.88 22.07,51.91 32.89,77.98 8.93,21.55 19.29,42.83 25.06,65.26 7.2,27.93 8.17,56.87 -0.06,88.48 -12.09,-5.32 -22.68,-9.67 -32.99,-14.58 -19.86,-9.44 -40.3,-15.81 -62.47,-11.19 -37.77,7.86 -73.04,50.02 -76.57,90.9 -5.34,61.87 30.11,91.84 88.3,74.63 1.4,-0.42 2.74,-1.2 4.17,-1.39 16.38,-2.21 32.84,-6.38 49.17,-5.92 18.62,0.52 31.45,17.64 28.56,33.15 -15.11,81.12 -40.19,159.17 -75.17,233.75 -46.26,98.62 -94.53,196.3 -141.16,294.73 -38.88,82.09 -76.88,164.59 -102.97,251.99 -5.04,16.9 -7.2,33.24 -3.32,50.45 16.74,74.25 23.47,149.11 13.77,225.03 -6.41,50.21 -21.78,98 -37.47,148.76 -5.73,-12.55 -10.01,-22.3 -14.64,-31.88 -4.38,-9.11 -9.14,-18.05 -13.73,-27.06 -1.41,0.65 -2.82,1.3 -4.23,1.95 20.75,59.19 48.8,116.39 52.29,180.2 -54.31,-3.37 -106.55,-6.6 -158.61,-9.83 -3.03,-45.13 -12.54,-59.81 -49.88,-80.33 -3.54,-1.95 -6.27,-7.83 -6.87,-12.22 -3.35,-24.28 -5.88,-48.68 -8.79,-73.02 -1.47,-12.33 -8.86,-17.97 -20.97,-17.98 -14.22,-0.02 -28.43,-0.01 -41.99,-0.01 -8.48,-15.85 -15.94,-31.8 -25.19,-46.63 -13.89,-22.31 -32.75,-39.09 -59.26,-45.03 -62.4,-13.97 -122.42,20.06 -143.8,85.07 -11.24,34.18 -16.05,70.46 -24.44,105.62 -1.09,4.59 -5.53,9.28 -9.66,12.09 -20.09,13.62 -40.77,26.36 -60.82,40.01 -5.19,3.54 -8.9,9.26 -13.28,13.98 6.22,-0.15 9.8,-3.05 13.73,-5.37 22.62,-13.36 44.12,-29.68 68.29,-39.12 34.93,-13.63 87.3,9.91 102.14,41.78 0,0.98 -0.01,1.95 -0.01,2.93 5.86,3.8 11.73,7.6 19.95,12.93 -74.07,20.98 -144.09,40.82 -214.11,60.65 11.14,0.48 21.71,-1.14 32.11,-3.52 60.94,-13.91 122.98,-23.56 181.26,-47.78 4.06,-1.68 10.36,2.06 15.61,3.28 -0.17,1.49 -0.33,2.97 -0.51,4.46 -64.3,28.64 -128.59,57.29 -192.89,85.93 0.46,1.12 0.92,2.23 1.39,3.35 69.17,-24.67 139.05,-47.53 203.29,-87.18 -2.95,-3.6 -8.19,-9.98 -13.47,-16.39 2.95,-2.2 5.13,-3.83 4.76,-3.56 -6.34,-4.76 -12.54,-9.42 -18.74,-14.09 1.92,-1.14 3.85,-2.27 2.6,-1.54 -5.55,-4.94 -14.75,-9.53 -17.41,-16.57 -2.32,-6.18 0.5,-16.79 4.88,-22.55 13.67,-18.01 33.18,-25.09 55.66,-23.65 27.84,1.77 51.24,14.89 74.39,28.89 7.72,4.67 16.41,7.71 24.65,11.49 0.68,-1.24 1.35,-2.48 2.02,-3.72 -3.06,-3.28 -6.12,-6.56 -9.25,-9.91 31.07,-22.38 56.08,-23.64 84.68,-4.76 22.26,14.71 32.2,37.68 26.27,62.21 -8.04,0 -16.33,0 -24.62,0 29.7,5.06 29.7,5.06 27.99,30.4 -4.69,-0.72 -9.38,-1.4 -14.07,-2.18 -4.19,-0.7 -8.36,-1.5 -12.54,-2.26 57.97,32.49 122.89,37.81 189.13,51.16 -12.52,23.57 -24.39,45.91 -36.7,69.07 -52.99,-36.89 -102.61,-71.44 -152.25,-105.99 38.73,49.52 93.78,77.03 146.03,110.36 -28.65,28.47 -58.76,52.41 -97.91,66.74 -14.29,-30.45 -28.86,-58.7 -40.72,-88.05 -5.42,-13.41 -12.56,-18.87 -26.06,-17.46 -15.55,1.61 -26.06,-6.22 -30.89,-19.68 -4.9,-13.58 -6.98,-28.18 -10.29,-42.33 -3.51,1.97 -7.03,3.95 -10.54,5.92 1.66,39.84 14.49,70.32 62.45,71.77 -5.35,1.69 -9.15,1.69 -12.95,1.69 -33.25,0.03 -61.96,21.14 -66.11,53.55 -3.66,28.52 -5.21,58.06 -2.12,86.55 6.66,61.45 27.11,119.32 56.03,173.81 7.64,14.37 8.63,25.55 1.54,40.28 -21.55,44.79 -43.39,89.32 -77.75,125.98 -4.83,5.16 -15.02,9.12 -21.5,7.77 -5.52,-1.15 -11.24,-10.12 -13.37,-16.75 -3.44,-10.76 -4.02,-22.43 -6.01,-34.99 -30.76,30.54 -39.7,73.16 -21.1,97.15 -30.01,17.59 -61.2,31.33 -98.37,36.72 2.65,-21.14 4.96,-39.47 7.26,-57.79 -1.64,-0.19 -3.29,-0.39 -4.94,-0.58 -14.16,32.9 -12.45,68.23 -11.75,107.34 -15.21,-13.54 -27.72,-24.66 -41.01,-36.48 0,17.73 0,34.29 0,52.63 -8.37,-7.05 -15.26,-12.87 -23.74,-20 -3.18,32.83 -6.11,63.24 -9.05,93.66 -0.9,0.08 -1.79,0.15 -2.69,0.22 -11.34,-38.87 -22.68,-77.75 -34.77,-119.24 -4.63,17.88 -8.6,33.25 -13.07,50.51 -5.94,-7.82 -10.64,-14 -16.01,-21.08 -3.6,23.64 -6.89,45.3 -10.18,66.96 -1.59,0.12 -3.18,0.24 -4.76,0.36 -5.09,-30.26 -10.17,-60.51 -15.26,-90.76 -0.81,-0.26 -1.61,-0.51 -2.42,-0.76 -4.21,11.21 -8.42,22.44 -12.94,34.49 -5.97,-14.18 -10.47,-28.32 -17.59,-40.98 -9.73,-17.29 -19.72,-35.01 -32.81,-49.67 -14.02,-15.69 -31.78,-28.04 -50.28,-43.88 5.71,10.55 10.84,19.4 15.3,28.58 1.83,3.76 4.4,9.45 2.89,12.2 -20.32,36.75 -23.82,76.47 -21.01,117.13 3.32,47.94 9.61,95.75 11.06,143.72 4.61,152.78 2.29,305.52 -11.57,457.82 -10.68,117.25 -29.66,233.39 -53.22,348.73 -24.47,119.85 -57.51,237.31 -109.69,348.2 -32.32,68.68 -69.81,134.93 -105.4,202.06 -2.73,5.16 -8.76,8.57 -13.25,12.81 -4.25,-5.66 -11.15,-10.84 -12.27,-17.06 -3.638,-20.18 -5.161,-40.74 -7.497,-61.16 -0.648,-2.29 -1.781,-4.57 -1.867,-6.89 -2.086,-56.85 -3.582,-113.72 -6.184,-170.54 -2.539,-55.31 -5.719,-110.6 -9.461,-165.84 -5.23,-77.2 -13.082,-154.27 -16.367,-231.54 -2.898,-68.04 -2.695,-136.32 -0.809,-204.41 1.575,-56.72 7.079,-113.37 11.758,-169.97 5.551,-67.07 19.664,-132.57 39.257,-196.87 22.27,-73.06 57.72,-140.37 90.84,-208.76 29.36,-60.63 52.34,-123.61 62.05,-190.71 3.14,-21.68 5.29,-43.51 7.89,-65.27 -0.65,-25.7 -1.09,-51.4 -2.16,-77.08 -0.15,-3.55 -3.33,-6.98 -5.11,-10.47 -2.2,3.69 -5.81,7.2 -6.3,11.11 -0.99,7.98 -0.29,16.17 -0.29,28.6 -5.3,-9.44 -8.86,-15.07 -11.73,-21.03 -37.77,-78.43 -46.75,-162.78 -46.05,-247.86 0.71,-84.82 6.92,-169.59 10.75,-254.38 0.15,-3.44 0.63,-6.88 1.15,-12.38 8.02,10.62 14.52,19.18 20.93,27.81 0.49,0.67 0.34,1.82 0.33,1.73 -5.96,3.13 -16.13,5.99 -16.17,9 -0.1,6.3 3.79,14.02 8.48,18.75 9.61,9.69 20.25,18.64 31.49,26.41 73.22,50.6 153.61,74.65 243.01,63.91 13.3,-1.59 26.51,-4.06 41.15,-6.35 -12.57,75.66 -26.84,149.46 -3.1,221.46 -4.16,4.27 -7.79,8 -11.42,11.73 5.53,1.95 11.08,5.49 16.58,5.41 6.62,-0.1 13.36,-2.85 19.77,-5.21 63.53,-23.4 106.89,-69.05 134.99,-128.68 26.59,-56.39 39.26,-115.07 8.89,-174.71 8.33,-9.25 16.69,-10.91 27.65,-4.94 13.63,7.44 27.85,10.19 43.71,3.99 20.7,-8.11 32.89,-22.12 37.18,-43.56 z M 1162.15,277.422 c 18.45,19.648 25.18,64.09 7.83,94.758 -18.82,3.711 -32.01,-2.211 -38.31,-20.688 -1.04,-3.062 -3.88,-5.504 -5.9,-8.23 -36.34,-26.473 -77.41,-43.563 -119.28,-58.582 -101.904,-36.559 -205.763,-59.961 -315.205,-45.641 -82.937,10.859 -153.34,45.582 -209.191,108.18 -21.848,24.472 -46.727,44.703 -75.614,60.011 -8.519,4.52 -17.367,10.489 -26.511,11.411 -42.934,4.347 -85.981,8 -129.074,10.328 -48.129,2.582 -93.692,-7.231 -133.911,-35.11 C 89.1836,374.582 77.668,347.711 83.1719,313.77 157.445,340.871 263.336,352.941 350.922,343.301 337.281,340.352 323.523,337.859 309.656,336.68 260.285,332.461 210.734,329.898 161.508,324.461 77.8633,315.219 30.3789,270.48 15.9844,190.09 6.87109,139.199 30.0273,95.3984 78.7617,77.332 100.008,69.4609 123.195,64.7813 145.813,63.2188 c 26.945,-1.8399 54.218,1.2421 82.414,2.2226 -20.313,61.0276 -5.918,117.4296 40.265,156.6606 67.942,57.707 145.684,60.277 227.18,36.957 3.461,-0.989 6.336,-4.028 9.492,-6.118 -9.195,-2.339 -17.379,-3.332 -24.672,-1.23 -37.578,10.809 -75.773,11.66 -113.679,4.879 -53.114,-9.488 -96.508,-35.578 -122.528,-84.41 -35.969,-67.5 -7.101,-133.2308 65.86,-150.0902 46.523,-10.75 93.96,-12.50777 139.32,4.0196 54.914,20.0312 109.015,42.4219 162.75,65.4492 78.269,33.5624 161.754,47.5894 243.539,68.2614 74.664,18.879 148.926,39.559 222.676,61.711 32.76,9.84 63.01,26.5 83.72,55.891 z m -784.4,957.948 c 3.758,-2.34 8.645,-3.87 11.047,-7.19 6.574,-9.1 11.316,-19.57 18.199,-28.38 20.379,-26.17 38.723,-54.76 62.902,-76.89 32.829,-30.06 94.071,-15.52 116.536,23.92 -41.215,40.08 -66.856,90.29 -90.645,141.77 5.016,-3.71 8.356,-8.6 11.707,-13.47 22.469,-32.66 43.875,-66.12 67.754,-97.71 17.418,-23.02 37.457,-44.34 67.488,-51.9 20.996,-5.27 34.481,2.94 38.93,23.75 5.059,23.67 -0.695,45.91 -10.117,67.08 -14.262,32.05 -32.344,62.62 -44.215,95.47 -14.352,39.71 -25.434,80.82 -34.988,122.01 -5.926,25.54 7.871,38.78 34.285,38.25 6.293,-0.13 12.535,-1.86 18.844,-2.41 15.554,-1.36 31.246,-4.2 46.695,-3.29 38.519,2.29 64.851,32.16 62.867,69.13 -2.039,37.98 -14.637,50.22 -52.176,48.2 -16.519,-0.9 -32.859,-4.84 -49.324,-7.12 -39.391,-5.45 -59.598,-1.66 -73.055,39.31 -1.515,4.62 -3.496,9.1 -5.476,13.55 -25.793,57.91 -69.594,94.36 -144.727,95.77 -19.918,-73.9 -11.543,-149.42 -12.23,-224.47 -18.055,75.36 -15.528,151.02 -1.981,228.4 -19.629,-0.96 -37.101,-1.81 -54.09,-2.63 -17.203,-63.87 -11.839,-127.92 -18.144,-190.86 -6.781,62.61 -5.965,125.02 4.918,189.61 -15.711,-4.42 -28.766,-8.08 -41.816,-11.75 -9.075,-0.65 -13.692,-5.31 -14.997,-14.54 -4.722,-33.47 -9.914,-66.87 -14.882,-100.3 -1.938,-13.01 -3.754,-26.02 -5.625,-39.04 -1.547,0.2 -3.098,0.41 -4.645,0.61 4.289,47.17 8.57,94.33 12.969,142.74 -24.297,-11.3 -48.824,-25.29 -57.422,-50.95 -26.863,-80.12 -35.551,-162.58 -20.68,-246.52 18.145,-102.4 69.672,-186.38 144.707,-256.43 15.367,-14.34 34.801,-25.21 53.957,-34.35 17,-8.12 32.067,-1.47 43.243,13.68 -27.223,32.4 -51.653,66.51 -65.813,106.95 z m 1701.1,-621.108 c -2.89,-1.742 -5.93,-3.274 -8.64,-5.25 -98,-71.66 -202.57,-128.633 -322.28,-156.922 -72.66,-17.16 -144.59,-29.66 -219.4,-21.641 -47.27,5.071 -94.54,2.922 -146.46,-7.289 12.04,-11.789 20.12,-23.808 31.39,-29.781 16.12,-8.527 34.16,-14.91 52.11,-18.18 61.84,-11.238 124.21,-1.609 186.36,-2.558 52,-2.25 104.04,-3.93 156.01,-6.903 49.98,-2.847 99.88,-7.117 149.83,-10.59 47.46,-3.296 94.94,-8.968 142.4,-8.878 53.66,0.101 106.09,10.562 154.08,36.781 50.4,27.539 70.4,89.527 41.65,135.679 -28.26,45.372 -69.85,74.071 -122.86,82.942 -24.26,4.066 -49.37,3.066 -74.11,4.367 -0.32,1.231 -0.63,2.461 -0.95,3.691 12.23,2.25 24.42,6.059 36.72,6.481 70.96,2.437 125.83,-28.391 167.05,-84.481 18.22,-24.82 24.39,-53.468 16.1,-83.73 -3.5,-12.75 -9.61,-24.801 -15,-38.352 37.55,5.84 70.28,19.832 98.62,43.832 35.17,29.758 48.58,67.102 36.63,111.899 -11.98,44.98 -38.74,77.781 -86.07,86.371 -27.64,5.012 -56.53,5.082 -84.78,4.199 -23.53,-0.73 -46.92,-6.097 -70.37,-9.418 27.14,16.778 57.21,23.207 88.08,22.688 30.78,-0.52 61.5,-4.598 91.69,-7.078 -16.55,41.48 -43.19,74.699 -94.42,76.859 -20.84,0.879 -41.88,-2.109 -62.77,-4.012 -5.06,-0.457 -10.98,-2.316 -14.63,-5.609 -42.21,-38.149 -84.04,-76.688 -125.98,-115.117 z M 1606.08,5304.11 c -1.57,-3.27 -4.22,-6.42 -4.54,-9.81 -9.14,-94.71 -27.63,-187.71 -48.98,-280.32 -14.52,-62.89 -27.67,-126.16 -38.92,-189.7 -11.84,-66.93 -22.29,-134.19 -30.4,-201.67 -8.58,-71.38 -17.75,-143.08 -19.22,-214.8 -1.73,-84.69 3.11,-169.62 7.87,-254.29 2.63,-46.76 8.71,-93.61 17.33,-139.65 8,-42.75 12.27,-86.51 29.06,-127.58 4.76,-11.64 2.4,-26.15 3.54,-39.32 1.62,-18.61 3.48,-37.19 5.37,-57.36 5.06,3.11 7.39,4.98 10.03,6.05 4.37,1.77 8.95,3.01 13.43,4.48 1.16,-4.97 2.94,-9.89 3.35,-14.92 0.59,-7 0.15,-14.08 0.15,-24.31 12.82,9 22.66,15.9 32.52,22.81 3.2,-3.73 6.4,-7.47 9.61,-11.2 -1.34,-11.4 -2.68,-22.79 -3.97,-33.71 21.78,-6.55 41.53,-12.49 61.44,-18.48 6.2,25.77 12.19,50.72 18.2,75.66 18.8,43.56 40.59,86.1 55.79,130.88 31.82,93.65 40.24,191.74 44.1,289.72 4,100.99 6.46,202.26 3.61,303.25 -2.69,94.96 -11.42,189.87 -20.69,284.5 -10.18,103.9 -28.83,206.55 -55.73,307.59 -19.89,74.75 -39.03,149.71 -58.96,224.44 -2.93,10.99 -8.35,21.32 -14.16,35.78 -19.76,-22.2 -22.36,-44.35 -19.83,-68.04 z M 2456.73,1816.8 c 57.04,23.25 114.14,24.52 171.37,0.65 0.51,-0.21 1.54,0.82 3.11,1.72 -1.05,3.49 -1.83,7.27 -3.28,10.74 -14.57,34.75 -27.75,70.19 -44.18,104.03 -58.92,121.36 -138.27,228.95 -227.44,329.42 -48.5,54.66 -99.66,106.95 -148.6,161.23 -34.78,38.57 -67.87,78.69 -101.71,118.12 -7.31,9.28 -14.62,18.57 -23.49,29.87 -6.24,-31.8 -12.71,-59.19 -2.97,-89.54 25.69,-80.09 59.61,-156.6 95.41,-232.37 35.18,-74.49 71.83,-148.29 107.74,-222.44 42.45,-87.64 82.31,-176.31 105.28,-275.88 17.04,31.27 42,48.89 68.76,64.45 z M 1073.64,324.531 c 2.49,1.008 4.99,2.02 7.49,3.028 21.04,9.23 41.09,19.582 50.5,44.16 -63.92,-1.469 -118.15,21.91 -167.415,57.222 -31.43,22.52 -61.352,47.379 -90.395,72.957 -51.836,45.641 -107.05,87.622 -152.058,140.793 -73.094,86.321 -121.328,185.11 -145.879,294.957 -12.028,53.793 -18.473,108.822 -27.598,164.222 -33.222,-15.14 -65.402,-8.04 -94.367,16.61 -13.844,-13.2 -29.215,-21.8 -47.25,-17.62 -14,3.24 -28.227,8.78 -40.238,16.56 -16.543,10.73 -31.09,24.52 -47.149,37.54 -1.211,-15.17 -4.121,-29.78 -3.215,-44.16 3.207,-50.75 3.688,-102.13 12.504,-151.972 25.625,-144.808 94.356,-268.879 192.203,-377.328 44.457,-49.262 93.258,-94.129 146.282,-134.121 10.531,-7.949 10.215,-15.91 2.625,-22.988 -8.711,-8.129 -19.754,-13.75 -29.789,-20.461 -73.637,-10.301 -146.379,4.929 -218.082,9.879 24.015,-21.93 49.234,-42.137 71.105,-65.477 63.313,-67.562 142.363,-98.621 232.941,-103.453 100.125,-5.328 195.602,16.48 288.205,52.723 20.3,7.937 39.8,17.918 59.68,26.957 z M 743,1814.22 c 0.391,0.88 0.789,1.77 1.203,2.65 0.942,1.71 1.887,3.44 2.832,5.16 59.485,90.55 119.09,181.03 178.418,271.68 39.735,60.72 82.617,119.74 117.757,183.04 52.41,94.4 74.92,199.38 91.87,304.99 10.39,64.74 16.26,130.2 23.59,195.4 2.41,21.48 0.71,41.17 -13.07,61.02 -21.3,30.67 -30.96,66.94 -35.29,104.31 -2.81,-34.81 -3.68,-69.66 -7.66,-104.14 -3.3,-28.61 -1.29,-58.69 -17.09,-84.85 -5.73,-9.49 -12.02,-18.64 -18.06,-27.95 -10.73,-12.04 -20.64,-24.95 -32.35,-35.96 -24.29,-22.82 -50.072,-44.07 -74.263,-66.99 -59.278,-56.18 -125.364,-103.64 -190.492,-152.53 -66.989,-50.27 -133.922,-101.02 -196.926,-156.08 -45.641,-39.9 -85.739,-86.34 -126.684,-131.33 -81.242,-89.26 -144.918,-189.09 -175.969,-307.12 -9.753,-37.08 -16.496,-74.95 -24.906,-113.79 22.461,10.25 41.914,19.14 61.367,28.03 20.539,4.45 40.879,11.05 61.657,12.98 82.484,7.64 157.964,-4.26 207.8,-82.22 1.282,2.72 2.567,5.14 3.586,7.66 69.285,170.76 173.926,317.57 303.602,447.28 14.836,14.83 31.808,27.61 48.351,40.63 4.782,3.76 11.493,6.75 17.368,6.83 3.804,0.05 8.363,-5.33 11.203,-9.28 1.082,-1.51 -1.68,-5.8 -2.688,-8.81 -3.871,1.79 -7.738,3.59 -13.66,6.34 -6.558,-5.59 -14.297,-12.18 -22.031,-18.79 -4.594,-3.57 -9.813,-6.58 -13.676,-10.82 -48.508,-53.28 -98.898,-105.02 -144.73,-160.52 -77.098,-93.37 -131.317,-200.51 -177.778,-311.72 -1.785,-4.27 -2.008,-9.49 -1.836,-14.22 0.469,-12.69 4.176,-25.85 1.821,-37.89 -4.399,-22.53 6.492,-40.15 15.933,-57.66 3.586,-6.64 15.571,-10.52 24.289,-11.79 3.711,-0.53 10.813,8.11 13.067,13.86 28.777,73.67 63.797,144.25 103.445,212.6 z M 298.078,1724.7 c 48.086,13.52 96.692,19.72 146.684,12.81 49.035,-6.78 91.297,-24.82 120.281,-67.14 2.621,-3.83 5.461,-7.5 9.902,-13.57 1.7,44.71 -14.793,77.45 -48.211,101.99 -29.324,21.54 -63.211,30.08 -98.66,33.27 -48.644,4.39 -95.562,-2 -139.594,-24.41 -16.972,-11.09 -35.246,-20.65 -50.546,-33.69 -14.649,-12.48 -14.141,-29.39 -4.344,-43.06 21.711,11.38 43.101,22.59 64.488,33.8 z M 1704.79,2931.57 c -7.04,-1.08 -14.08,-2.15 -20.7,-3.17 0,-12.02 -0.33,-22.7 0.1,-33.35 0.42,-10.22 1.69,-20.39 2.48,-30.59 1.57,-20.32 3.28,-21.82 24.07,-20.92 14.04,0.87 28.07,1.94 42.12,2.53 8.03,0.34 11.2,4.19 11.18,11.98 -0.13,33.11 -0.06,66.22 -0.06,99.42 -20.4,-8.93 -39.79,-17.42 -59.19,-25.9 z m -88.17,-164.62 c 2.77,-1.24 5.55,-2.48 8.32,-3.73 61.34,-20.9 108.16,6.34 128.72,71.08 -15.24,-1.1 -30.28,-2.18 -45.32,-3.25 -1.22,-0.48 -2.44,-0.96 -3.66,-1.44 -1.98,-0.29 -3.94,-0.58 -5.9,-0.86 -3.78,1.91 -7.56,3.81 -11.34,5.72 -4.01,10.61 -10.08,20.94 -11.6,31.89 -2.81,20.21 -2.95,40.79 -4.19,61.14 -27.97,6.98 -52.12,17.61 -62.12,47.57 -23.82,-18.85 -49.16,-31.4 -80.9,-28.68 7.86,-35.52 15.33,-69.28 22.8,-103.03 1.08,-3.12 2.14,-6.24 3.21,-9.36 2.52,-5.76 4.44,-11.88 7.66,-17.21 13.19,-21.84 27.96,-42.12 54.22,-49.79 z m -303.87,950.46 c 11.24,3.46 18.09,6.84 25.19,7.52 23.92,2.28 37.19,14.98 42.8,38.13 3.31,13.64 9.17,26.7 14.34,39.84 1.64,4.15 4.73,7.74 7.15,11.58 1.17,-0.46 2.32,-0.91 3.48,-1.37 0.79,-6.31 1.57,-12.63 2.36,-18.94 0.98,-0.11 1.95,-0.22 2.93,-0.33 2.54,12.78 4.18,25.83 7.93,38.25 2.45,8.15 7.96,15.38 12.1,23.02 4.3,-7.51 10,-14.58 12.55,-22.64 3.32,-10.54 4.15,-21.87 6.05,-32.84 17.17,7.47 17.17,7.47 23.82,-21.1 6.96,23.26 12.54,43.36 18.98,63.17 12.42,38.2 4.44,75.64 -4.32,112.79 -17.32,73.54 -28.31,147.98 -30.93,223.4 -2.92,84.35 -5.77,168.78 -5.14,253.15 0.58,79.41 11.66,158.1 24.89,236.44 12.54,74.25 22.36,148.99 36.33,222.96 13.11,69.45 31.79,137.85 44.84,207.31 12.63,67.19 21.04,135.17 31.7,202.73 3.13,19.75 6.95,39.44 11.77,58.83 2.72,10.96 10.39,19.34 22.61,20.05 12.37,0.73 16.78,-9.48 19.57,-18.65 12.7,-41.93 25.68,-83.82 36.61,-126.22 18.23,-70.77 37.17,-141.48 51.73,-213.04 14.2,-69.85 25.19,-140.49 34.07,-211.22 8.85,-70.46 16.28,-141.35 18.96,-212.25 3.55,-94.07 3.59,-188.37 1.91,-282.51 -1.28,-71.48 -5.3,-143.1 -12.21,-214.26 -9.36,-96.55 -31.19,-190.01 -75.17,-277.94 -15.69,-31.34 -22.05,-67.39 -31.98,-101.48 -0.89,-3.04 2.23,-9.63 5.2,-11.07 80.73,-39.4 127.66,-108.39 164.39,-186.49 32.82,-69.74 55.78,-142.85 73.55,-217.62 4.28,-18 5.17,-36.79 7.61,-55.13 39.18,-15.05 71.49,-40.69 101.49,-70.69 5.61,2.78 11.44,5.68 17.26,8.56 0.47,-0.78 0.95,-1.56 1.43,-2.34 -4.65,-3.79 -9.29,-7.58 -12.65,-10.31 12.68,-24.37 25.19,-48.42 38.31,-73.67 2.08,0 6.36,0 14.19,0 -6.64,-3.21 -10.41,-5.04 -15.5,-7.51 8.2,-19.16 2.01,-41.88 12.78,-60.1 1.29,0.23 -1.56,-0.27 -0.94,-0.17 -8.61,-33.04 -17.1,-64.45 -24.82,-96.05 -1.63,-6.67 -2.04,-14.42 -0.38,-21.01 11.88,-47.2 26.94,-93.76 36.17,-141.45 11.23,-57.98 9.04,-116.87 1.2,-175.46 -0.84,-6.28 1.04,-14.61 4.81,-19.58 74.99,-98.55 161.18,-187.27 244.78,-278.3 105.63,-115.02 199.81,-238.41 265.93,-381.03 16.16,-34.86 28.66,-71.4 43.44,-106.94 2.62,-6.34 7.22,-12.55 12.48,-16.97 20.65,-17.44 41.19,-34.81 52.89,-60.06 6.47,-13.99 11.08,-28.11 5.91,-43.88 -0.91,-2.8 1.03,-7.6 3.19,-10.19 40.14,-48.29 48.67,-104.37 40.68,-164.46 -13.37,-100.5 -49.85,-191.64 -114.48,-270.04 -17.46,-21.19 -39.61,-39.72 -62.67,-54.77 -28.08,-18.33 -51.03,-11.65 -78.01,16.15 -27.22,-16.41 -53.84,-37.25 -89.15,-16.64 -12.74,-81.9 -34.02,-160.02 -66.42,-234.879 -32.57,-75.25 -73.63,-145.429 -128.7,-210.863 7.76,0.961 12.63,1.66 17.52,2.152 74.35,7.43 125.24,-15.261 150.79,-92.398 1.81,-5.48 5.99,-11.051 10.6,-14.582 47.34,-36.289 67.76,-104.238 43.54,-155.008 -20.11,-42.14 -57.01,-66.23 -99.87,-81.281 -13.7,-4.813 -28.49,-6.391 -42.69,-9.801 -5.08,-1.219 -11.09,-2.23 -14.66,-5.512 -31.89,-29.429 -71.62,-41.269 -112.45,-49.82 -66.13,-13.859 -132.48,-9.937 -198.97,-1.238 -35.92,4.699 -72.18,7.652 -108.37,9.18 -91.13,3.851 -182.28,6.789 -273.45,9.359 -36.69,1.043 -73.64,-2.188 -110.09,1.012 -24.18,2.129 -48.21,10.718 -71.28,19.211 -18.97,6.98 -30.69,23.449 -39.3,43.359 -63.26,-16.129 -125.89,-32.082 -185.54,-47.289 0.92,-22.461 5.02,-44.063 2,-64.633 -6.63,-45.148 -38.45,-73.32 -77.53,-89.129 C 1059.64,201.281 1005.62,183.641 951.16,168.969 873.449,148.031 793.859,133.859 716.566,111.609 660.703,95.5313 606.941,71.8203 552.848,50.0117 503.988,30.3203 456.355,6.62891 403.031,1.82031 353.844,-2.62891 305.16,-0.570313 261.277,26.7109 c -4.55,2.8204 -10.039,5.5274 -12.687,9.7696 -10.258,16.4883 -25.027,14.289 -40.965,12.6601 C 166.824,44.9688 126.398,47.2109 86.6836,58.75 18.625,78.5313 -11.5977,129.238 4.03906,198.141 13.4883,239.75 31.1641,276.422 65.8555,303.27 c 2.8086,2.171 5.1484,7.46 4.7031,10.929 -7.3594,57.832 30.8364,91.922 80.4144,111.242 47.715,18.579 97.039,17.75 146.48,13.27 84.43,-7.652 168.649,-17.801 253.149,-24.379 29.402,-2.293 59.461,2.168 89.054,5.148 7.754,0.782 14.91,7.532 25.121,13.032 -18.48,15.25 -34.316,28.008 -49.804,41.16 -86.2,73.238 -160.41,156.629 -216.129,255.66 -49.903,88.688 -81.352,183.598 -90.899,284.808 -4.125,43.74 -1.738,88.14 -1.605,132.24 0.043,14.17 0.402,26.15 -10.535,38.8 -53.926,62.38 -90.235,133.65 -105.102,215.61 -14.484,79.87 -7.64,158.11 14.246,235.47 3.727,13.17 11.352,25.21 16.508,38.03 1.305,3.24 1.242,8.1 -0.258,11.23 -9.125,19.05 -7.687,36.42 5.082,53.63 4.66,6.29 8.129,14.62 9.004,22.37 18.488,164.26 89.668,303.59 198.379,426.03 73.164,82.41 150.113,160.56 238.824,226.37 56.188,41.68 114.727,80.42 168.864,124.58 66.781,54.49 130.617,112.64 194.698,170.36 40.31,36.3 53.67,84.57 55.37,137.27 0.95,29.38 3.81,58.69 5.23,88.05 0.27,5.4 -2.43,10.9 -3.39,16.42 -0.73,4.19 -1.57,8.55 -1.14,12.71 1.56,14.92 5.69,29.85 5.19,44.66 -3.14,93.58 -8.18,187.11 -10.8,280.71 -2.51,89.49 5.34,177.84 39.95,261.79 5.36,13.01 11.67,26 19.77,37.41 9.13,12.84 11.01,26.18 10.52,41.2 -2.85,86.47 -27.89,167.15 -64.13,244.69 -31.68,67.79 -67.69,133.55 -90.95,205.14 -24.572,75.58 -38.084,153.08 -46.596,231.96 -10.551,97.85 -13.398,195.85 -10.453,294.02 1.817,60.72 6.692,121.36 10.527,182.01 2.723,43.06 6.614,86.05 8.911,129.12 5.312,99.39 9.82,198.81 15.007,298.2 1.329,25.44 3.68,50.83 6.176,76.18 0.707,7.17 1.949,15.27 5.863,20.91 5.5,7.93 12.845,17.53 21.095,19.59 5.68,1.41 16.74,-7.2 21.07,-14.05 17.69,-28.03 34.75,-56.57 50.2,-85.89 52.82,-100.23 98.51,-203.49 129.95,-312.66 29.61,-102.82 51.39,-207.32 66.89,-313.12 9.29,-63.43 19.83,-126.83 25.17,-190.63 6.89,-82.55 11.37,-165.44 12.79,-248.26 1.53,-88.95 -0.96,-178 -3.21,-266.96 -0.92,-36.19 -7.36,-72.23 -8.38,-108.43 -0.68,-23.99 3.79,-48.14 6.07,-73.49"
         style="fill:#262121;fill-opacity:1;fill-rule:nonzero;stroke:none"
         transform="matrix(0.13333333,0,0,-0.13333333,0,717.25333)" />
      <path
         id="path4"
         d="m 1533.1,2729.42 c -1.03,-2.24 -2.08,-4.47 -3.11,-6.71 22.19,-16.48 43.79,-33.87 66.86,-49.02 10.27,-6.73 23.22,-11.35 35.43,-12.73 37.22,-4.24 101.05,21.33 126.96,50.39 -79.41,-51.71 -154.98,-48.58 -226.14,18.07 z m 274.45,-171.82 c -27.76,-15.24 -54.64,-32.41 -83.44,-45.29 -55.68,-24.89 -108.8,-17.56 -156.99,19.96 -15.39,11.98 -29.31,25.86 -43.91,38.87 3.4,-3.18 5.52,-8.41 8.48,-13.14 17.84,-28.55 41.82,-50.65 72.38,-64.65 23.89,-10.94 49.14,-16.34 75.66,-10.94 51.2,10.44 91.43,40.47 130.26,72.97 2.61,1.99 5.2,3.98 7.8,5.97 -0.96,0.85 -1.91,1.71 -2.87,2.57 -2.45,-2.11 -4.91,-4.21 -7.37,-6.32 z m -4.04,515.95 c 3.31,14.15 5.39,28.75 10.29,42.33 4.83,13.46 15.34,21.29 30.89,19.68 13.5,-1.41 20.64,4.05 26.06,17.46 11.86,29.35 26.43,57.6 40.72,88.05 39.15,-14.33 69.26,-38.27 97.91,-66.74 -52.25,-33.33 -107.3,-60.84 -146.03,-110.36 49.64,34.55 99.26,69.1 152.25,105.99 12.31,-23.16 24.18,-45.5 36.7,-69.07 -66.24,-13.35 -131.16,-18.67 -189.13,-51.16 4.18,0.76 8.35,1.56 12.54,2.26 4.69,0.78 9.38,1.46 14.07,2.18 1.71,-25.34 1.71,-25.34 -27.99,-30.4 8.29,0 16.58,0 24.62,0 5.93,-24.53 -4.01,-47.5 -26.27,-62.21 -28.6,-18.88 -53.61,-17.62 -84.68,4.76 3.13,3.35 6.19,6.63 9.25,9.91 -0.67,1.24 -1.34,2.48 -2.02,3.72 -8.24,-3.78 -16.93,-6.82 -24.65,-11.49 -23.15,-14 -46.55,-27.12 -74.39,-28.89 -22.48,-1.44 -41.99,5.64 -55.66,23.65 -4.38,5.76 -7.2,16.37 -4.88,22.55 2.66,7.04 11.86,11.63 17.41,16.57 1.25,-0.73 -0.68,0.4 -2.6,1.54 6.2,4.67 12.4,9.33 18.74,14.09 0.37,-0.27 -1.81,1.36 -4.76,3.56 5.28,6.41 10.52,12.79 13.47,16.39 -64.24,39.65 -134.12,62.51 -203.29,87.18 -0.47,-1.12 -0.93,-2.23 -1.39,-3.35 64.3,-28.64 128.59,-57.29 192.89,-85.93 0.18,-1.49 0.34,-2.97 0.51,-4.46 -5.25,-1.22 -11.55,-4.96 -15.61,-3.28 -58.28,24.22 -120.32,33.87 -181.26,47.78 -10.4,2.38 -20.97,4 -32.11,3.52 70.02,-19.83 140.04,-39.67 214.11,-60.65 -8.22,-5.33 -14.09,-9.13 -19.95,-12.93 -63.51,21.17 -129.25,26.66 -195.88,26 65.3,-9.65 130.6,-19.28 195.89,-28.93 -14.84,-31.87 -67.21,-55.41 -102.14,-41.78 -24.17,9.44 -45.67,25.76 -68.29,39.12 -3.93,2.32 -7.51,5.22 -13.73,5.37 4.38,-4.72 8.09,-10.44 13.28,-13.98 20.05,-13.65 40.73,-26.39 60.82,-40.01 4.13,-2.81 8.57,-7.5 9.66,-12.09 8.39,-35.16 13.2,-71.44 24.44,-105.62 21.38,-65.01 81.4,-99.04 143.8,-85.07 26.51,5.94 45.37,22.72 59.26,45.03 9.25,14.83 16.71,30.78 25.19,46.63 13.56,0 27.77,-0.01 41.99,0.01 12.11,0.01 19.5,5.65 20.97,17.98 2.91,24.34 5.44,48.74 8.79,73.02 0.6,4.39 3.33,10.27 6.87,12.22 37.34,20.52 46.85,35.2 49.88,80.33 52.06,3.23 104.3,6.46 158.61,9.83 -3.49,-63.81 -31.54,-121.01 -52.29,-180.2 1.41,-0.65 2.82,-1.3 4.23,-1.95 4.59,9.01 9.35,17.95 13.73,27.06 4.63,9.58 8.91,19.33 14.64,31.88 15.69,-50.76 31.06,-98.55 37.47,-148.76 9.7,-75.92 2.97,-150.78 -13.77,-225.03 -3.88,-17.21 -1.72,-33.55 3.32,-50.45 26.09,-87.4 64.09,-169.9 102.97,-251.99 46.63,-98.43 94.9,-196.11 141.16,-294.73 34.98,-74.58 60.06,-152.63 75.17,-233.75 2.89,-15.51 -9.94,-32.63 -28.56,-33.15 -16.33,-0.46 -32.79,3.71 -49.17,5.92 -1.43,0.19 -2.77,0.97 -4.17,1.39 -58.19,17.21 -93.64,-12.76 -88.3,-74.63 3.53,-40.88 38.8,-83.04 76.57,-90.9 22.17,-4.62 42.61,1.75 62.47,11.19 10.31,4.91 20.9,9.26 32.99,14.58 8.23,-31.61 7.26,-60.55 0.06,-88.48 -5.77,-22.43 -16.13,-43.71 -25.06,-65.26 -10.82,-26.07 -24.92,-51.1 -32.89,-77.98 -14.96,-50.44 15.01,-82.27 65.48,-73.74 20.34,-31.72 6.19,-63.68 -0.26,-94.89 -26.87,-130.2 -79.21,-249.291 -159.44,-355.658 -7.81,-10.34 -17.13,-19.531 -25.75,-29.254 -4.62,-1.098 -9.56,-1.508 -13.82,-3.418 -14.77,-6.609 -29.28,-13.801 -43.93,-20.672 -84.52,-39.687 -172.3,-70.308 -262.42,-94.398 -91.44,-24.43 -184.04,-42.192 -278.53,-49.68 -63.96,-5.058 -127.87,-11.719 -192.14,-5.82 -52.59,4.84 -105.44,7.969 -157.68,15.43 -73.53,10.5 -144.23,32.218 -211.63,63.781 -59.837,28.031 -114.857,63.211 -164.396,107.449 -47.035,42.012 -87.062,89.082 -115.175,145.559 -31.192,62.671 -49.758,129.621 -64.582,197.751 -2.684,12.33 -6.946,24.31 -10.481,36.46 -3.355,24.59 -6.711,49.17 -10.066,73.75 0.769,6.01 2.824,12.17 2.109,18 -8.711,71.04 -9.789,142.33 -7.715,213.76 15.153,3.41 31.516,4.25 45.242,10.7 50.434,23.7 52.336,78.95 28.196,116.14 -5.375,8.28 -19.074,12.77 -29.832,15.47 -10.137,2.55 -21.446,0.46 -32.242,0.41 7.769,41.37 15.585,82.73 23.136,124.13 0.305,1.68 -1.886,3.81 -2.91,5.74 24.461,44.53 46.359,90.71 73.899,133.26 65.734,101.54 131.558,203.22 202.105,301.42 87.272,121.49 134.602,257.37 157.672,402.99 12.31,77.76 20.97,156.08 31.18,233.36 7.9,-6.25 18.38,-14.54 28.86,-22.84 0.89,1.13 1.78,2.25 2.66,3.38 -2.16,2.41 -4.14,5.02 -6.52,7.2 -43.11,39.36 -65.07,90.07 -75.36,145.96 -2.07,11.27 6.23,24.44 9.57,36.1 -7.89,-2.88 -18.45,-6.72 -29.01,-10.56 -1.13,0.85 -2.25,1.7 -3.38,2.54 3.88,7.85 7.22,16.02 11.76,23.47 10.9,17.88 22.35,35.41 33.57,53.08 l 0.28,0.38 -0.37,-0.25 c -9.47,-1.63 -18.93,-3.25 -28.4,-4.87 -0.96,1.22 -1.93,2.43 -2.89,3.65 18.35,23.64 36.71,47.27 56.47,72.72 -14.9,-6.16 -28,-11.58 -41.11,-17 -0.9,1.44 -1.8,2.88 -2.7,4.32 16.28,12.52 31.61,26.57 49,37.28 63.26,38.95 132.09,59.21 206.68,52.75 62.61,-5.43 120.44,-28.06 175.95,-56.6 16.92,-8.71 32.94,-19.19 49.94,-27.72 5.04,-2.53 12.23,-2.39 18.08,-1.4 13,2.21 26.2,9.3 38.58,7.9 20.89,-2.36 33.45,-16.76 35.71,-38.59 -1.17,-21.39 37.46,-56.47 58.29,-52.87 1.89,0.33 3.83,0.97 5.48,1.91 22.13,12.61 34.02,31.93 37.1,56.96"
         style="fill:#e0d9eb;fill-opacity:1;fill-rule:nonzero;stroke:none"
         transform="matrix(0.13333333,0,0,-0.13333333,0,717.25333)" />
      <path
         id="path5"
         d="m 1454.74,3625.95 c -8.83,22.09 -21.32,40.44 -40.99,52.87 -20.77,13.12 -38.9,10.06 -54.7,-8.94 -4.93,-5.92 -9.58,-12.92 -11.64,-20.19 -3.83,-13.54 -8.33,-27.74 -7.83,-41.5 1.64,-45.02 5.23,-89.98 8.68,-134.92 0.27,-3.58 5.27,-6.8 8.08,-10.19 2.19,3.37 5.84,6.54 6.34,10.15 2.4,16.98 3.17,34.2 5.93,51.11 4.65,28.44 9.77,56.83 15.86,85 3.31,15.26 13.79,23.46 30.23,21.64 12.93,-1.43 25.83,-3.23 40.04,-5.03 z m -169.49,443.45 c -3.51,75.77 -5.63,155.73 -11.4,235.43 -4.78,65.87 -12.61,131.6 -21.38,197.08 -10.07,75.15 -22.29,150.02 -34.26,224.91 -16.04,100.35 -37.84,199.25 -80.26,292.35 -19.97,43.82 -41.46,86.98 -73.93,123.26 -5.06,5.65 -14.11,7.73 -21.3,11.47 -1.2,-8.32 -4.91,-17.22 -3.14,-24.85 5.95,-25.75 14.32,-50.91 20.89,-76.53 7.88,-30.74 16.95,-61.39 21.72,-92.66 5.97,-39.15 8.95,-78.82 11.59,-118.38 2.21,-33.27 3.79,-66.75 2.64,-100.04 -2.45,-71.03 -7.47,-141.98 -10.13,-213.01 -1.08,-28.86 0.46,-57.89 2.18,-86.76 2.42,-40.58 4.61,-81.27 9.62,-121.57 8.44,-67.96 18.42,-135.74 28.83,-203.44 10.58,-68.77 23.95,-137.04 48.45,-202.49 11.89,-31.78 25.31,-62.95 50.82,-86.9 17.84,-16.74 31.98,-13.81 39.06,9.96 5.55,18.64 10.02,38.09 11.31,57.42 3.81,56.75 5.79,113.63 8.69,174.75 z M 993.043,5240.98 c 2.336,20.42 3.859,40.98 7.497,61.16 1.12,6.22 8.02,11.4 12.27,17.06 4.49,-4.24 10.52,-7.65 13.25,-12.81 35.59,-67.13 73.08,-133.38 105.4,-202.06 52.18,-110.89 85.22,-228.35 109.69,-348.2 23.56,-115.34 42.54,-231.48 53.22,-348.73 13.86,-152.3 16.18,-305.04 11.57,-457.82 -1.45,-47.97 -7.74,-95.78 -11.06,-143.72 -2.81,-40.66 0.69,-80.38 21.01,-117.13 1.51,-2.75 -1.06,-8.44 -2.89,-12.2 -4.46,-9.18 -9.59,-18.03 -15.3,-28.58 18.5,15.84 36.26,28.19 50.28,43.88 13.09,14.66 23.08,32.38 32.81,49.67 7.12,12.66 11.62,26.8 17.59,40.98 4.52,-12.05 8.73,-23.28 12.94,-34.49 0.81,0.25 1.61,0.5 2.42,0.76 5.09,30.25 10.17,60.5 15.26,90.76 1.58,-0.12 3.17,-0.24 4.76,-0.36 3.29,-21.66 6.58,-43.32 10.18,-66.96 5.37,7.08 10.07,13.26 16.01,21.08 4.47,-17.26 8.44,-32.63 13.07,-50.51 12.09,41.49 23.43,80.37 34.77,119.24 0.9,-0.07 1.79,-0.14 2.69,-0.22 2.94,-30.42 5.87,-60.83 9.05,-93.66 8.48,7.13 15.37,12.95 23.74,20 0,-18.34 0,-34.9 0,-52.63 13.29,11.82 25.8,22.94 41.01,36.48 -0.7,-39.11 -2.41,-74.44 11.75,-107.34 1.65,0.19 3.3,0.39 4.94,0.58 -2.3,18.32 -4.61,36.65 -7.26,57.79 37.17,-5.39 68.36,-19.13 98.37,-36.72 -18.6,-23.99 -9.66,-66.61 21.1,-97.15 1.99,12.56 2.57,24.23 6.01,34.99 2.13,6.63 7.85,15.6 13.37,16.75 6.48,1.35 16.67,-2.61 21.5,-7.77 34.36,-36.66 56.2,-81.19 77.75,-125.98 7.09,-14.73 6.1,-25.91 -1.54,-40.28 -28.92,-54.49 -49.37,-112.36 -56.03,-173.81 -3.09,-28.49 -1.54,-58.03 2.12,-86.55 4.15,-32.41 32.86,-53.52 66.11,-53.55 3.8,0 7.6,0 12.95,-1.69 -47.96,-1.45 -60.79,-31.93 -62.45,-71.77 -27.2,9.06 -53.61,7.62 -79.09,-6.03 -4.29,21.44 -16.48,35.45 -37.18,43.56 -15.86,6.2 -30.08,3.45 -43.71,-3.99 -10.96,-5.97 -19.32,-4.31 -27.65,4.94 30.37,59.64 17.7,118.32 -8.89,174.71 -28.1,59.63 -71.46,105.28 -134.99,128.68 -6.41,2.36 -13.15,5.11 -19.77,5.21 -5.5,0.08 -11.05,-3.46 -16.58,-5.41 3.63,-3.73 7.26,-7.46 11.42,-11.73 -23.74,-72 -9.47,-145.8 3.1,-221.46 -14.64,2.29 -27.85,4.76 -41.15,6.35 -89.4,10.74 -169.79,-13.31 -243.01,-63.91 -11.24,-7.77 -21.88,-16.72 -31.49,-26.41 -4.69,-4.73 -8.58,-12.45 -8.48,-18.75 0.04,-3.01 10.21,-5.87 16.17,-9 0.01,0.09 0.16,-1.06 -0.33,-1.73 -6.41,-8.63 -12.91,-17.19 -20.93,-27.81 -0.52,5.5 -1,8.94 -1.15,12.38 -3.83,84.79 -10.04,169.56 -10.75,254.38 -0.7,85.08 8.28,169.43 46.05,247.86 2.87,5.96 6.43,11.59 11.73,21.03 0,-12.43 -0.7,-20.62 0.29,-28.6 0.49,-3.91 4.1,-7.42 6.3,-11.11 1.78,3.49 4.96,6.92 5.11,10.47 1.07,25.68 1.51,51.38 2.16,77.08 2.22,19.75 5.56,39.45 6.42,59.26 2.52,57.25 -13.17,111.47 -30.73,164.96 -23.82,72.54 -50.13,144.27 -73.91,216.82 -37.17,113.39 -55.33,230.56 -65.85,349.01 -4.03,45.27 -7.908,90.67 -8.576,136.06 -0.906,61.27 0.141,122.65 2.606,183.89 2.31,57.09 9.62,114.01 11.07,171.09 2.41,95.05 1.85,190.19 -8.69,284.9 -1.68,15.1 -6.228,29.88 -9.447,44.81"
         style="fill:#7e777c;fill-opacity:1;fill-rule:nonzero;stroke:none"
         transform="matrix(0.13333333,0,0,-0.13333333,0,717.25333)" />
      <path
         id="path6"
         d="m 694.496,1147.52 c 3.535,-12.15 7.797,-24.13 10.481,-36.46 14.824,-68.13 33.39,-135.08 64.582,-197.751 28.113,-56.477 68.14,-103.547 115.175,-145.559 49.539,-44.238 104.559,-79.418 164.396,-107.449 67.4,-31.563 138.1,-53.281 211.63,-63.781 52.24,-7.461 105.09,-10.59 157.68,-15.43 64.27,-5.899 128.18,0.762 192.14,5.82 94.49,7.488 187.09,25.25 278.53,49.68 90.12,24.09 177.9,54.711 262.42,94.398 14.65,6.871 29.16,14.063 43.93,20.672 4.26,1.91 9.2,2.32 13.82,3.418 -23.19,-24.469 -44.97,-50.508 -69.85,-73.117 -88.94,-80.82 -187.35,-148.359 -300.66,-189.371 -84.57,-30.629 -171.54,-56.098 -263.51,-52.852 -17.66,0.621 -35.37,1.211 -52.94,3.012 -75.98,7.809 -149.4,-6.57 -222.41,-24.961 -41.26,-10.391 -82.07,-23.48 -123.89,-30.59 -71.13,-12.09 -137.63,2.653 -196.258,46.063 -86.532,64.07 -169.824,132.328 -242.715,211.66 -77.578,84.449 -125.063,185.859 -149.426,297.258 -11.16,51 -14.98,103.6 -22.574,155.42 -1.34,9.12 1.433,14.39 8.949,19.39 8.051,5.37 14.902,12.54 19.254,16.31 20.996,-7.53 39.488,-16.98 59.027,-20.39 20.911,-3.65 32.711,8.32 42.219,34.61"
         style="fill:#a1a2bd;fill-opacity:1;fill-rule:nonzero;stroke:none"
         transform="matrix(0.13333333,0,0,-0.13333333,0,717.25333)" />
      <path
         id="path7"
         d="m 922.465,2192.38 c 7.734,6.61 15.473,13.2 22.031,18.79 5.922,-2.75 9.789,-4.55 13.66,-6.34 1.008,3.01 3.77,7.3 2.688,8.81 -2.84,3.95 -7.399,9.33 -11.203,9.28 -5.875,-0.08 -12.586,-3.07 -17.368,-6.83 -16.543,-13.02 -33.515,-25.8 -48.351,-40.63 -129.676,-129.71 -234.317,-276.52 -303.602,-447.28 -1.019,-2.52 -2.304,-4.94 -3.586,-7.66 -49.836,77.96 -125.316,89.86 -207.8,82.22 -20.778,-1.93 -41.118,-8.53 -61.657,-12.98 0.286,5.91 -0.808,12.31 1.078,17.66 15.458,43.76 29.875,88 47.649,130.82 35.445,85.41 86.109,161.72 149.781,228.39 34.348,35.97 72.278,69.08 111.61,99.59 81.093,62.91 164.628,122.66 246.308,184.83 36.988,28.15 72.11,59.14 99.203,97.28 27.418,38.6 53.284,78.39 78.044,118.76 11.1,18.1 17.84,38.88 26.55,58.44 6.04,9.31 12.33,18.46 18.06,27.95 15.8,26.16 13.79,56.24 17.09,84.85 3.98,34.48 4.85,69.33 7.66,104.14 4.33,-37.37 13.99,-73.64 35.29,-104.31 13.78,-19.85 15.48,-39.54 13.07,-61.02 -7.33,-65.2 -13.2,-130.66 -23.59,-195.4 -16.95,-105.61 -39.46,-210.59 -91.87,-304.99 -35.14,-63.3 -78.022,-122.32 -117.757,-183.04 -59.328,-90.65 -118.933,-181.13 -178.426,-271.68 0.477,4.9 0,10.13 1.563,14.65 36.828,106.73 87.984,206.6 145.211,303.59 10.07,17.07 19.137,34.73 28.664,52.11"
         style="fill:#7e777c;fill-opacity:1;fill-rule:nonzero;stroke:none"
         transform="matrix(0.13333333,0,0,-0.13333333,0,717.25333)" />
      <path
         id="path8"
         d="m 1162.15,277.422 c -20.71,-29.391 -50.96,-46.051 -83.72,-55.891 C 1004.68,199.379 930.418,178.699 855.754,159.82 773.969,139.148 690.484,125.121 612.215,91.5586 558.48,68.5313 504.379,46.1406 449.465,26.1094 404.105,9.58203 356.668,11.3398 310.145,22.0898 237.184,38.9492 208.316,104.68 244.285,172.18 c 26.02,48.832 69.414,74.922 122.528,84.41 37.906,6.781 76.101,5.93 113.679,-4.879 7.293,-2.102 15.477,-1.109 24.672,1.23 -3.156,2.09 -6.031,5.129 -9.492,6.118 -81.496,23.32 -159.238,20.75 -227.18,-36.957 C 222.309,182.871 207.914,126.469 228.227,65.4414 200.031,64.4609 172.758,61.3789 145.813,63.2188 123.195,64.7813 100.008,69.4609 78.7617,77.332 30.0273,95.3984 6.87109,139.199 15.9844,190.09 c 14.3945,80.39 61.8789,125.129 145.5236,134.371 49.226,5.437 98.777,8 148.148,12.219 13.867,1.179 27.625,3.672 41.266,6.621 -87.586,9.64 -193.477,-2.43 -267.7501,-29.531 -5.5039,33.941 6.0117,60.812 33.8121,80.089 40.219,27.879 85.782,37.692 133.911,35.11 43.093,-2.328 86.14,-5.981 129.074,-10.328 9.144,-0.922 17.992,-6.891 26.511,-11.411 28.887,-15.308 53.766,-35.539 75.614,-60.011 55.851,-62.598 126.254,-97.321 209.191,-108.18 109.442,-14.32 213.301,9.082 315.205,45.641 41.87,15.019 82.94,32.109 119.28,58.582 17.33,-2.903 27.77,-13.633 31.57,-30.102 2.69,-11.66 3.28,-23.801 4.81,-35.738"
         style="fill:#e0d9ea;fill-opacity:1;fill-rule:nonzero;stroke:none"
         transform="matrix(0.13333333,0,0,-0.13333333,0,717.25333)" />
      <path
         id="path9"
         d="m 639.891,403.93 c 10.035,6.711 21.078,12.332 29.789,20.461 7.59,7.078 7.906,15.039 -2.625,22.988 C 614.031,487.371 565.23,532.238 520.773,581.5 422.926,689.949 354.195,814.02 328.57,958.828 c -8.816,49.842 -9.297,101.222 -12.504,151.972 -0.906,14.38 2.004,28.99 3.215,44.16 16.059,-13.02 30.606,-26.81 47.149,-37.54 12.011,-7.78 26.238,-13.32 40.238,-16.56 18.035,-4.18 33.406,4.42 47.25,17.62 28.965,-24.65 61.145,-31.75 94.367,-16.61 9.125,-55.4 15.57,-110.429 27.598,-164.222 24.551,-109.847 72.785,-208.636 145.879,-294.957 45.008,-53.171 100.222,-95.152 152.058,-140.793 29.043,-25.578 58.965,-50.437 90.395,-72.957 49.265,-35.312 103.495,-58.691 167.415,-57.222 -9.41,-24.578 -29.46,-34.93 -50.51,-44.16 -2.49,-1.008 -4.99,-2.02 -7.48,-3.028 l 0.1,0.028 c -5.29,-0.59 -10.72,-0.61 -15.85,-1.86 -55.36,-13.578 -111.3,-20.121 -168.128,-12.449 -77.723,10.5 -151.008,35.121 -220.043,72.148 -10.707,5.75 -19.922,14.282 -29.828,21.532"
         style="fill:#5e595d;fill-opacity:1;fill-rule:nonzero;stroke:none"
         transform="matrix(0.13333333,0,0,-0.13333333,0,717.25333)" />
      <path
         id="path10"
         d="m 2514.21,1408.42 c -2.5,-4.12 -5.27,-8.11 -7.47,-12.37 -16.98,-32.91 -31.75,-67.19 -51.44,-98.37 -14.81,-23.49 -36.15,-42.73 -64.59,-50.83 -30.56,-8.7 -55.81,11.81 -52.98,43.2 3.03,33.52 18.14,62.74 34.99,90.72 26.39,43.79 33.84,91.21 30.72,141.02 -1.72,27.72 -13.18,33.92 -38.95,22.8 -14.73,-6.36 -29.2,-14.02 -44.59,-17.96 -19.87,-5.09 -38.84,-0.15 -55.13,13.12 -33.54,27.34 -46.34,68.69 -32.42,104.99 10.41,27.17 27.68,35.44 55.39,27.76 17.83,-4.94 35.89,-9.49 54.13,-12.39 20.53,-3.26 39.68,3.69 50.07,21.26 29.01,49.02 78.21,56.01 127.03,64.71 7.18,1.27 14.52,1.62 22.91,2.5 16.32,-37.72 20.14,-78.06 25.15,-118.19 9.39,40.16 3.82,79.12 -9.54,120.44 18.74,-2.86 36.46,-4.89 53.81,-8.68 4.23,-0.93 9.91,-7.33 10.34,-11.68 2.13,-21.39 2.86,-42.93 3.79,-64.42 0.4,-9.25 0.07,-18.54 2.57,-28.21 4.66,30.54 9.34,61.09 14.28,93.39 10.82,-6.98 23.2,-14.2 34.54,-22.77 2.97,-2.25 4.12,-8.79 3.78,-13.19 -1.57,-20.43 -3.95,-40.79 -2.77,-62.13 5.32,20.47 10.63,40.96 16.27,62.7 27.86,-28.79 48.78,-60.35 54.56,-100.23 11.25,-77.57 -10.7,-149.31 -39.68,-219.52 -23.98,-58.1 -56.41,-110.85 -104.44,-152.57 -9.52,-8.27 -20.12,-15.92 -31.41,-21.43 -21.78,-10.63 -44.25,-2.84 -56.93,18.5 64.89,48.32 100.36,115.21 117.95,193.15 -1.53,-2.42 -3.21,-4.75 -4.54,-7.27 -20.85,-39.61 -39.12,-80.86 -63.21,-118.38 -21.53,-33.53 -52.99,-59.19 -87.87,-79.17 -10.18,-5.84 -22.58,-10.06 -34.19,-10.67 -19.1,-1 -36.52,18.67 -35.49,37.49 0.17,2.92 3.36,6.63 6.16,8.31 32.09,19.38 55,47.07 71.54,80.02 13.19,26.28 28.17,52.09 31.64,82.09 -1.33,0.75 -2.66,1.51 -3.98,2.26"
         style="fill:#fbfbfc;fill-opacity:1;fill-rule:nonzero;stroke:none"
         transform="matrix(0.13333333,0,0,-0.13333333,0,717.25333)" />
      <path
         id="path11"
         d="m 306.938,1713.52 c 13.05,3.67 26.105,7.33 41.816,11.75 -10.883,-64.59 -11.699,-127 -4.918,-189.61 6.305,62.94 0.941,126.99 18.144,190.86 16.989,0.82 34.461,1.67 54.09,2.63 -13.547,-77.38 -16.074,-153.04 1.981,-228.4 0.687,75.05 -7.688,150.57 12.23,224.47 75.133,-1.41 118.934,-37.86 144.727,-95.77 1.98,-4.45 3.961,-8.93 5.476,-13.55 13.457,-40.97 33.664,-44.76 73.055,-39.31 16.465,2.28 32.805,6.22 49.324,7.12 37.539,2.02 50.137,-10.22 52.176,-48.2 1.984,-36.97 -24.348,-66.84 -62.867,-69.13 -15.449,-0.91 -31.141,1.93 -46.695,3.29 -6.309,0.55 -12.551,2.28 -18.844,2.41 -26.414,0.53 -40.211,-12.71 -34.285,-38.25 9.554,-41.19 20.636,-82.3 34.988,-122.01 11.871,-32.85 29.953,-63.42 44.215,-95.47 9.422,-21.17 15.176,-43.41 10.117,-67.08 -4.449,-20.81 -17.934,-29.02 -38.93,-23.75 -30.031,7.56 -50.07,28.88 -67.488,51.9 -23.879,31.59 -45.285,65.05 -67.754,97.71 -3.351,4.87 -6.691,9.76 -11.707,13.47 23.789,-51.48 49.43,-101.69 90.645,-141.77 -22.465,-39.44 -83.707,-53.98 -116.536,-23.92 -24.179,22.13 -42.523,50.72 -62.902,76.89 -6.883,8.81 -11.625,19.28 -18.199,28.38 -2.402,3.32 -7.289,4.85 -11.047,7.19 -2.137,3.85 -4.238,7.72 -6.426,11.54 -41.644,72.76 -71.554,149.2 -70.199,234.64 1.227,77.34 3.82,154.64 5.813,231.97"
         style="fill:#f9f8fa;fill-opacity:1;fill-rule:nonzero;stroke:none"
         transform="matrix(0.13333333,0,0,-0.13333333,0,717.25333)" />
      <path
         id="path12"
         d="m 2078.85,614.262 c 41.94,38.429 83.77,76.968 125.98,115.117 3.65,3.293 9.57,5.152 14.63,5.609 20.89,1.903 41.93,4.891 62.77,4.012 51.23,-2.16 77.87,-35.379 94.42,-76.859 -30.19,2.48 -60.91,6.558 -91.69,7.078 -30.87,0.519 -60.94,-5.91 -88.08,-22.688 23.45,3.321 46.84,8.688 70.37,9.418 28.25,0.883 57.14,0.813 84.78,-4.199 47.33,-8.59 74.09,-41.391 86.07,-86.371 11.95,-44.797 -1.46,-82.141 -36.63,-111.899 -28.34,-24 -61.07,-37.992 -98.62,-43.832 5.39,13.551 11.5,25.602 15,38.352 8.29,30.262 2.12,58.91 -16.1,83.73 -41.22,56.09 -96.09,86.918 -167.05,84.481 -12.3,-0.422 -24.49,-4.231 -36.72,-6.481 0.32,-1.23 0.63,-2.46 0.95,-3.691 24.74,-1.301 49.85,-0.301 74.11,-4.367 53.01,-8.871 94.6,-37.57 122.86,-82.942 28.75,-46.152 8.75,-108.14 -41.65,-135.679 -47.99,-26.219 -100.42,-36.68 -154.08,-36.781 -47.46,-0.09 -94.94,5.582 -142.4,8.878 -49.95,3.473 -99.85,7.743 -149.83,10.59 -51.97,2.973 -104.01,4.653 -156.01,6.903 -0.66,1.789 -1.04,3.769 -2.03,5.359 -12.4,19.871 -10.22,27.48 11.4,37 6.67,2.93 13.71,5.23 20.78,6.988 68.19,17.051 137.34,30.481 201.35,61.75 58.99,28.821 117.98,57.5 169.84,98.293 10.49,8.25 17.15,21.36 25.58,32.231"
         style="fill:#e0d9ea;fill-opacity:1;fill-rule:nonzero;stroke:none"
         transform="matrix(0.13333333,0,0,-0.13333333,0,717.25333)" />
      <path
         id="path13"
         d="m 1751.14,4432.55 c -3.35,97.06 -5.37,172.11 -8.81,247.09 -1.54,33.71 -4.06,67.59 -9.41,100.86 -12.28,76.29 -24.78,152.64 -40.77,228.2 -8.56,40.43 -24.28,79.37 -37.61,118.7 -1.46,4.3 -8.73,9.62 -12.78,9.2 -3.94,-0.4 -9.7,-7.21 -10.33,-11.79 -2.81,-20.8 -5.09,-41.78 -5.65,-62.76 -0.54,-20.53 2.64,-41.21 1.66,-61.7 -1.51,-31.77 -5.23,-63.43 -7.88,-95.14 -5.94,-70.77 -11.45,-141.57 -17.8,-212.3 -5.59,-62.41 -10.08,-125.02 -18.69,-187.04 -12.74,-91.8 -21.48,-183.85 -25.06,-276.39 -3.74,-96.78 -0.43,-193.26 20.47,-288.23 5.52,-25.07 14.05,-49.93 24.77,-73.23 8.01,-17.41 22.77,-18.24 35.44,-3.37 9.99,11.74 18.88,25.43 24.49,39.73 40.74,103.78 60.72,212.64 73.15,322.69 8.51,75.38 11.08,151.44 14.81,205.48 z m -154.86,-660.03 c -3.21,3.73 -6.41,7.47 -9.61,11.21 -11.78,32.68 -25.43,64.82 -34.92,98.15 -19.7,69.19 -30.55,140.18 -35.77,211.9 -4.57,62.86 -10.15,125.78 -11.06,188.74 -0.95,65.07 2.85,130.23 5.23,195.34 1.33,36.15 2.36,72.44 6.41,108.34 6.35,56.18 13.98,112.26 23.17,168.04 14.27,86.62 31.33,172.79 45.16,259.47 7.68,48.11 11.45,96.85 16.49,145.36 1.93,18.47 3.08,37.06 3.59,55.61 0.81,29.8 0.78,59.62 1.11,89.43 -2.53,23.69 0.07,45.84 19.83,68.04 5.81,-14.46 11.23,-24.79 14.16,-35.78 19.93,-74.73 39.07,-149.69 58.96,-224.44 26.9,-101.04 45.55,-203.69 55.73,-307.59 9.27,-94.63 18,-189.54 20.69,-284.5 2.85,-100.99 0.39,-202.26 -3.61,-303.25 -3.86,-97.98 -12.28,-196.07 -44.1,-289.72 -15.2,-44.78 -36.99,-87.32 -55.79,-130.88 -5.06,-2.7 -10.35,-5.03 -15.13,-8.17 -18.45,-12.11 -36.61,-25.02 -60.54,-15.3"
         style="fill:#7e777c;fill-opacity:1;fill-rule:nonzero;stroke:none"
         transform="matrix(0.13333333,0,0,-0.13333333,0,717.25333)" />
      <path
         id="path14"
         d="m 2106,2542.71 c 33.84,-39.43 66.93,-79.55 101.71,-118.12 48.94,-54.28 100.1,-106.57 148.6,-161.23 89.17,-100.47 168.52,-208.06 227.44,-329.42 16.43,-33.84 29.61,-69.28 44.18,-104.03 1.45,-3.47 2.23,-7.25 3.28,-10.74 -1.57,-0.9 -2.6,-1.93 -3.11,-1.72 -57.23,23.87 -114.33,22.6 -171.36,-0.65 -3.39,13.97 -5.53,28.4 -10.4,41.83 -15.97,44.05 -29.98,89.15 -50.26,131.2 -25.27,52.4 -56.34,101.98 -84.33,153.09 -38.5,70.26 -76.61,140.75 -114.62,211.28 -30.8,57.14 -61.39,114.39 -91.5,171.89 -2.24,4.3 0.14,11.02 0.37,16.62"
         style="fill:#7d777c;fill-opacity:1;fill-rule:nonzero;stroke:none"
         transform="matrix(0.13333333,0,0,-0.13333333,0,717.25333)" />
      <path
         id="path15"
         d="m 1067.5,2725.53 c -8.71,-19.56 -15.45,-40.34 -26.55,-58.44 -24.76,-40.37 -50.626,-80.16 -78.044,-118.76 -27.093,-38.14 -62.215,-69.13 -99.203,-97.28 -81.68,-62.17 -165.215,-121.92 -246.308,-184.83 -39.332,-30.51 -77.262,-63.62 -111.61,-99.59 -63.672,-66.67 -114.336,-142.98 -149.781,-228.39 -17.774,-42.82 -32.191,-87.06 -47.649,-130.82 -1.886,-5.35 -0.792,-11.75 -1.078,-17.66 -19.453,-8.89 -38.906,-17.78 -61.367,-28.03 8.41,38.84 15.153,76.71 24.906,113.79 31.051,118.03 94.727,217.86 175.969,307.12 40.945,44.99 81.043,91.43 126.684,131.33 63.004,55.06 129.937,105.81 196.926,156.08 65.128,48.89 131.214,96.35 190.492,152.53 24.191,22.92 49.973,44.17 74.263,66.99 11.71,11.01 21.62,23.92 32.35,35.96"
         style="fill:#5d585d;fill-opacity:1;fill-rule:nonzero;stroke:none"
         transform="matrix(0.13333333,0,0,-0.13333333,0,717.25333)" />
      <path
         id="path16"
         d="m 2106,2542.71 c -0.23,-5.6 -2.61,-12.32 -0.37,-16.62 30.11,-57.5 60.7,-114.75 91.5,-171.89 38.01,-70.53 76.12,-141.02 114.62,-211.28 27.99,-51.11 59.06,-100.69 84.33,-153.09 20.28,-42.05 34.29,-87.15 50.26,-131.2 4.87,-13.43 7.01,-27.86 10.4,-41.83 -26.77,-15.56 -51.73,-33.18 -68.77,-64.45 -22.97,99.57 -62.83,188.24 -105.28,275.88 -35.91,74.15 -72.56,147.95 -107.74,222.44 -35.8,75.77 -69.72,152.28 -95.41,232.37 -9.74,30.35 -3.27,57.74 2.97,89.54 8.87,-11.3 16.18,-20.59 23.49,-29.87"
         style="fill:#5e595d;fill-opacity:1;fill-rule:nonzero;stroke:none"
         transform="matrix(0.13333333,0,0,-0.13333333,0,717.25333)" />
      <path
         id="path17"
         d="m 993.043,5240.98 c 3.219,-14.93 7.767,-29.71 9.447,-44.81 10.54,-94.71 11.1,-189.85 8.69,-284.9 -1.45,-57.08 -8.76,-114 -11.07,-171.09 -2.465,-61.24 -3.512,-122.62 -2.606,-183.89 0.668,-45.39 4.546,-90.79 8.576,-136.06 10.52,-118.45 28.68,-235.62 65.85,-349.01 23.78,-72.55 50.09,-144.28 73.91,-216.82 17.56,-53.49 33.25,-107.71 30.73,-164.96 -0.86,-19.81 -4.2,-39.51 -6.42,-59.26 -2.6,21.76 -4.75,43.59 -7.89,65.27 -9.71,67.1 -32.69,130.08 -62.05,190.71 -33.12,68.39 -68.57,135.7 -90.84,208.76 -19.593,64.3 -33.706,129.8 -39.257,196.87 -4.679,56.6 -10.183,113.25 -11.758,169.97 -1.886,68.09 -2.089,136.37 0.809,204.41 3.285,77.27 11.137,154.34 16.367,231.54 3.742,55.24 6.922,110.53 9.461,165.84 2.602,56.82 4.098,113.69 6.184,170.54 0.086,2.32 1.219,4.6 1.867,6.89"
         style="fill:#5d585d;fill-opacity:1;fill-rule:nonzero;stroke:none"
         transform="matrix(0.13333333,0,0,-0.13333333,0,717.25333)" />
      <path
         id="path18"
         d="m 306.938,1713.52 c -1.993,-77.33 -4.586,-154.63 -5.813,-231.97 -1.355,-85.44 28.555,-161.88 70.199,-234.64 2.188,-3.82 4.289,-7.69 6.426,-11.54 14.16,-40.44 38.59,-74.55 65.813,-106.95 -11.176,-15.15 -26.243,-21.8 -43.243,-13.68 -19.156,9.14 -38.59,20.01 -53.957,34.35 -75.035,70.05 -126.562,154.03 -144.707,256.43 -14.871,83.94 -6.183,166.4 20.68,246.52 8.598,25.66 33.125,39.65 57.422,50.95 -4.399,-48.41 -8.68,-95.57 -12.969,-142.74 1.547,-0.2 3.098,-0.41 4.645,-0.61 1.871,13.02 3.687,26.03 5.625,39.04 4.968,33.43 10.16,66.83 14.882,100.3 1.305,9.23 5.922,13.89 14.997,14.54"
         style="fill:#b2b2bc;fill-opacity:1;fill-rule:nonzero;stroke:none"
         transform="matrix(0.13333333,0,0,-0.13333333,0,717.25333)" />
      <path
         id="path19"
         d="m 1606.08,5304.11 c -0.33,-29.81 -0.3,-59.63 -1.11,-89.43 -0.51,-18.55 -1.66,-37.14 -3.59,-55.61 -5.04,-48.51 -8.81,-97.25 -16.49,-145.36 -13.83,-86.68 -30.89,-172.85 -45.16,-259.47 -9.19,-55.78 -16.82,-111.86 -23.17,-168.04 -4.05,-35.9 -5.08,-72.19 -6.41,-108.34 -2.38,-65.11 -6.18,-130.27 -5.23,-195.34 0.91,-62.96 6.49,-125.88 11.06,-188.74 5.22,-71.72 16.07,-142.71 35.77,-211.9 9.49,-33.33 23.14,-65.47 34.92,-98.15 -9.86,-6.92 -19.7,-13.82 -32.52,-22.82 0,10.23 0.44,17.31 -0.15,24.31 -0.41,5.03 -2.19,9.95 -3.35,14.92 -4.48,-1.47 -9.06,-2.71 -13.43,-4.48 -2.64,-1.07 -4.97,-2.94 -10.03,-6.05 -1.89,20.17 -3.75,38.75 -5.37,57.36 -1.14,13.17 1.22,27.68 -3.54,39.32 -16.79,41.07 -21.06,84.83 -29.06,127.58 -8.62,46.04 -14.7,92.89 -17.33,139.65 -4.76,84.67 -9.6,169.6 -7.87,254.29 1.47,71.72 10.64,143.42 19.22,214.8 8.11,67.48 18.56,134.74 30.4,201.67 11.25,63.54 24.4,126.81 38.92,189.7 21.35,92.61 39.84,185.61 48.98,280.32 0.32,3.39 2.97,6.54 4.54,9.81"
         style="fill:#5d585d;fill-opacity:1;fill-rule:nonzero;stroke:none"
         transform="matrix(0.13333333,0,0,-0.13333333,0,717.25333)" />
      <path
         id="path20"
         d="m 639.891,403.93 c 9.906,-7.25 19.121,-15.782 29.828,-21.532 69.035,-37.027 142.32,-61.648 220.043,-72.148 56.828,-7.672 112.768,-1.129 168.128,12.449 5.13,1.25 10.56,1.27 15.85,1.86 -19.88,-9.039 -39.38,-19.02 -59.68,-26.957 -92.603,-36.243 -188.08,-58.051 -288.205,-52.723 -90.578,4.832 -169.628,35.891 -232.941,103.453 -21.871,23.34 -47.09,43.547 -71.105,65.477 71.703,-4.95 144.445,-20.18 218.082,-9.879"
         style="fill:#7e777c;fill-opacity:1;fill-rule:nonzero;stroke:none"
         transform="matrix(0.13333333,0,0,-0.13333333,0,717.25333)" />
      <path
         id="path21"
         d="m 922.465,2192.38 c -9.527,-17.38 -18.594,-35.04 -28.664,-52.11 -57.227,-96.99 -108.383,-196.86 -145.211,-303.59 -1.563,-4.52 -1.086,-9.75 -1.563,-14.65 -0.937,-1.72 -1.882,-3.45 -2.824,-5.16 -0.402,-0.89 -0.801,-1.77 -1.203,-2.65 -39.648,-68.35 -74.668,-138.93 -103.445,-212.6 -2.254,-5.75 -9.356,-14.39 -13.067,-13.86 -8.718,1.27 -20.703,5.15 -24.289,11.79 -9.441,17.51 -20.332,35.13 -15.933,57.66 2.355,12.04 -1.352,25.2 -1.821,37.89 -0.172,4.73 0.051,9.95 1.836,14.22 46.461,111.21 100.68,218.35 177.778,311.72 45.832,55.5 96.222,107.24 144.73,160.52 3.863,4.24 9.082,7.25 13.676,10.82"
         style="fill:#5e595d;fill-opacity:1;fill-rule:nonzero;stroke:none"
         transform="matrix(0.13333333,0,0,-0.13333333,0,717.25333)" />
      <path
         id="path22"
         d="m 2078.85,614.262 c -8.43,-10.871 -15.09,-23.981 -25.58,-32.231 -51.86,-40.793 -110.85,-69.472 -169.84,-98.293 -64.01,-31.269 -133.16,-44.699 -201.35,-61.75 -7.07,-1.758 -14.11,-4.058 -20.78,-6.988 -21.62,-9.52 -23.8,-17.129 -11.4,-37 0.99,-1.59 1.37,-3.57 2.03,-5.359 -62.15,0.949 -124.52,-8.68 -186.36,2.558 -17.95,3.27 -35.99,9.653 -52.11,18.18 -11.27,5.973 -19.35,17.992 -31.39,29.781 51.92,10.211 99.19,12.36 146.46,7.289 74.81,-8.019 146.74,4.481 219.4,21.641 119.71,28.289 224.28,85.262 322.28,156.922 2.71,1.976 5.75,3.508 8.64,5.25"
         style="fill:#9f9fb9;fill-opacity:1;fill-rule:nonzero;stroke:none"
         transform="matrix(0.13333333,0,0,-0.13333333,0,717.25333)" />
      <path
         id="path23"
         d="m 1595.48,3127.05 c -45.41,17.97 -90.15,35.46 -134.6,53.62 -3.94,1.62 -7.72,7.22 -8.79,11.64 -3.78,15.66 -7.15,31.53 -8.94,47.51 -0.63,5.66 2.14,13.41 6.13,17.51 8.8,9.05 19.36,16.38 30.46,25.43 3.37,-11.9 5,-23.01 9.6,-32.7 8.1,-17.04 17.34,-33.65 27.58,-49.48 2.98,-4.61 12.84,-9.67 16.28,-7.96 5.42,2.71 11.87,11.38 11.26,16.78 -2.72,24.01 -7.3,47.85 -12.31,71.51 -1.56,7.37 -6.58,14.01 -11.54,24.08 17.37,1.56 33.16,3.17 49,4.19 2.26,0.15 5.84,-1.93 6.92,-3.98 26.72,-50.37 43.36,-102.54 27.54,-160.23 -0.76,-2.8 -2.03,-5.49 -3.34,-8.1 -2.15,-4.3 -4.53,-8.48 -5.25,-9.82"
         style="fill:#f9f9fa;fill-opacity:1;fill-rule:nonzero;stroke:none"
         transform="matrix(0.13333333,0,0,-0.13333333,0,717.25333)" />
      <path
         id="path24"
         d="m 2706.71,1700.12 c -44.42,39.91 -93.75,63.99 -152.6,60.54 -55.23,-3.25 -110.28,-9.05 -154.65,-47.94 -6.53,13.58 -6.92,19.9 0.32,34.13 19.11,37.56 52.23,57.07 90.94,68.4 75.08,22.01 154.37,-3.92 199.26,-64.75 10.42,-14.11 18.96,-29.12 16.73,-50.38"
         style="fill:#f9f9fa;fill-opacity:1;fill-rule:nonzero;stroke:none"
         transform="matrix(0.13333333,0,0,-0.13333333,0,717.25333)" />
      <path
         id="path25"
         d="m 1551.43,2843.36 c -7.47,33.75 -14.94,67.51 -22.8,103.03 31.74,-2.72 57.08,9.83 80.9,28.68 10,-29.96 34.15,-40.59 62.12,-47.57 1.24,-20.35 1.38,-40.93 4.19,-61.14 1.52,-10.95 7.59,-21.28 11.59,-31.89 -16.65,-9.15 -33.31,-10.04 -51.6,-3.61 -27.14,9.54 -55.33,14.62 -84.4,12.5"
         style="fill:#5b555a;fill-opacity:1;fill-rule:nonzero;stroke:none"
         transform="matrix(0.13333333,0,0,-0.13333333,0,717.25333)" />
      <path
         id="path26"
         d="m 288.48,1767.65 c 44.032,22.41 90.95,28.8 139.594,24.41 35.449,-3.19 69.336,-11.73 98.66,-33.27 33.418,-24.54 49.911,-57.28 48.211,-101.99 -4.441,6.07 -7.281,9.74 -9.902,13.57 -28.984,42.32 -71.246,60.36 -120.281,67.14 -49.992,6.91 -98.598,0.71 -146.684,-12.81 -11.484,12.47 -14.48,26.82 -9.598,42.95"
         style="fill:#f8f7f9;fill-opacity:1;fill-rule:nonzero;stroke:none"
         transform="matrix(0.13333333,0,0,-0.13333333,0,717.25333)" />
      <path
         id="path27"
         d="m 678.824,1453.03 c -2.074,-71.43 -0.996,-142.72 7.715,-213.76 0.715,-5.83 -1.34,-11.99 -2.109,-18 -33.282,55.88 -57.903,115.38 -73.66,178.46 -3.403,13.62 -5.684,27.66 -6.879,41.65 -1.141,13.32 6.554,20.26 19.886,18.86 18.399,-1.95 36.703,-4.77 55.047,-7.21"
         style="fill:#a1a2bd;fill-opacity:1;fill-rule:nonzero;stroke:none"
         transform="matrix(0.13333333,0,0,-0.13333333,0,717.25333)" />
      <path
         id="path28"
         d="m 1816.6,3326.19 c -12.83,-25.2 -19.04,-50.93 -11.5,-78.31 2.32,-8.39 4.75,-17.28 9.57,-24.26 3.66,-5.29 11.61,-11.43 16.88,-10.8 6.25,0.75 15.77,7.66 16.72,13.13 3.53,20.48 4.77,41.44 5.55,62.26 0.32,8.5 -2.74,17.12 -4.6,27.65 16.97,-9.96 32.62,-18.8 47.91,-28.25 7.57,-4.68 10.65,-30.17 5.42,-40.74 -11.26,-22.72 -22.98,-45.21 -33.81,-68.12 -4.69,-9.94 -12.64,-13.02 -22.24,-13.91 -28.08,-2.61 -55.37,15.6 -58.15,44.43 -3.19,32.97 -1.57,66.53 -0.07,99.74 0.7,15.65 13.88,18.1 28.32,17.18"
         style="fill:#f8f7f9;fill-opacity:1;fill-rule:nonzero;stroke:none"
         transform="matrix(0.13333333,0,0,-0.13333333,0,717.25333)" />
      <path
         id="path29"
         d="m 1439.94,3266.17 c -3.92,50.85 -9.6,98.23 12.22,144.78 48.68,-15.37 83.64,-46.07 113.25,-88.8 -50.21,-1.02 -88.53,-24.01 -125.47,-55.98"
         style="fill:#7e777c;fill-opacity:1;fill-rule:nonzero;stroke:none"
         transform="matrix(0.13333333,0,0,-0.13333333,0,717.25333)" />
      <path
         id="path30"
         d="m 1698.78,2828.75 c 1.96,0.28 3.92,0.57 5.9,0.86 1.22,0.48 2.44,0.96 3.66,1.44 15.04,1.07 30.08,2.15 45.32,3.25 -20.56,-64.74 -67.38,-91.98 -128.72,-71.08 -2.77,1.25 -5.55,2.49 -8.32,3.73 l -0.1,0.05 c -3.45,4.53 -7.46,8.74 -10.24,13.65 -7.52,13.26 -14.93,26.62 -21.31,40.44 -1.09,2.34 3.21,7.15 5.02,10.82 14.28,-3.35 29.09,-5.29 42.72,-10.37 23.68,-8.8 45.01,-3.96 66.07,7.21"
         style="fill:#c182ae;fill-opacity:1;fill-rule:nonzero;stroke:none"
         transform="matrix(0.13333333,0,0,-0.13333333,0,717.25333)" />
      <path
         id="path31"
         d="m 1900.25,3300.44 c -33.77,18.9 -64.11,40.54 -102.98,37.83 0.01,23.58 28.75,100.72 49.34,131.77 23.74,-54.84 38.53,-111.03 53.64,-169.6"
         style="fill:#7d777c;fill-opacity:1;fill-rule:nonzero;stroke:none"
         transform="matrix(0.13333333,0,0,-0.13333333,0,717.25333)" />
      <path
         id="path32"
         d="m 2059.47,3043.19 c -54.47,-3.29 -107.03,-6.47 -161.36,-9.76 -1.24,4.72 -3.18,12.1 -5.91,22.46 53.06,12.74 105.79,25.41 160.16,38.47 2.52,-18.13 4.9,-35.29 7.11,-51.17"
         style="fill:#e0d9ea;fill-opacity:1;fill-rule:nonzero;stroke:none"
         transform="matrix(0.13333333,0,0,-0.13333333,0,717.25333)" />
      <path
         id="path33"
         d="m 1704.79,2931.57 c 19.4,8.48 38.79,16.97 59.19,25.9 0,-33.2 -0.07,-66.31 0.06,-99.42 0.02,-7.79 -3.15,-11.64 -11.18,-11.98 -14.05,-0.59 -28.08,-1.66 -42.12,-2.53 -1.98,29.35 -3.97,58.69 -5.95,88.03"
         style="fill:#f9f9fa;fill-opacity:1;fill-rule:nonzero;stroke:none"
         transform="matrix(0.13333333,0,0,-0.13333333,0,717.25333)" />
      <path
         id="path34"
         d="m 1775.47,2949.61 c 18.38,-5.08 36.32,-10.05 57.2,-15.83 -2.69,-24.78 -5.72,-52.63 -8.88,-81.77 -16.96,0 -32.35,0 -48.32,0 0,33.44 0,66.06 0,97.6"
         style="fill:#fbfbfc;fill-opacity:1;fill-rule:nonzero;stroke:none"
         transform="matrix(0.13333333,0,0,-0.13333333,0,717.25333)" />
      <path
         id="path35"
         d="m 1596.28,3772.52 c 23.93,-9.72 42.09,3.19 60.54,15.3 4.78,3.14 10.07,5.47 15.13,8.17 -6.01,-24.94 -12,-49.89 -18.2,-75.66 -19.91,5.99 -39.66,11.93 -61.44,18.48 1.29,10.92 2.63,22.31 3.97,33.71"
         style="fill:#5d585d;fill-opacity:1;fill-rule:nonzero;stroke:none"
         transform="matrix(0.13333333,0,0,-0.13333333,0,717.25333)" />
      <path
         id="path36"
         d="m 710.414,1725.62 c 1.024,-1.93 3.215,-4.06 2.91,-5.74 -7.551,-41.4 -15.367,-82.76 -23.136,-124.13 -13.262,-2.68 -26.524,-5.36 -42.793,-8.64 5.117,13.09 8.714,23.97 13.531,34.28 16.265,34.85 32.953,69.5 49.488,104.23"
         style="fill:#a1a2bd;fill-opacity:1;fill-rule:nonzero;stroke:none"
         transform="matrix(0.13333333,0,0,-0.13333333,0,717.25333)" />
      <path
         id="path37"
         d="m 288.48,1767.65 c -4.882,-16.13 -1.886,-30.48 9.598,-42.95 -21.387,-11.21 -42.777,-22.42 -64.488,-33.8 -9.797,13.67 -10.305,30.58 4.344,43.06 15.3,13.04 33.574,22.6 50.546,33.69"
         style="fill:#b2b2bc;fill-opacity:1;fill-rule:nonzero;stroke:none"
         transform="matrix(0.13333333,0,0,-0.13333333,0,717.25333)" />
      <path
         id="path38"
         d="m 1162.15,277.422 c -1.53,11.937 -2.12,24.078 -4.81,35.738 -3.8,16.469 -14.24,27.199 -31.57,30.102 2.02,2.726 4.86,5.168 5.9,8.23 6.3,18.477 19.49,24.399 38.31,20.688 17.35,-30.668 10.62,-75.11 -7.83,-94.758"
         style="fill:#9f9fb9;fill-opacity:1;fill-rule:nonzero;stroke:none"
         transform="matrix(0.13333333,0,0,-0.13333333,0,717.25333)" />
      <path
         id="path39"
         d="m 1793.14,3066.61 c -23.27,15.33 -61.83,11.75 -83.04,-8.09 13.26,-15.8 27.39,-34.17 48.44,-34.09 20.37,0.07 25.28,23.05 34.02,38.48 0.45,0.79 0.32,1.9 0.58,3.7 z m -79.26,6.83 c 25.48,13.65 51.89,15.09 79.09,6.03 3.51,-1.97 7.03,-3.95 10.54,-5.92 -3.08,-25.03 -14.97,-44.35 -37.1,-56.96 -1.65,-0.94 -3.59,-1.58 -5.48,-1.91 -20.83,-3.6 -59.46,31.48 -58.29,52.87 3.75,1.97 7.49,3.93 11.24,5.89"
         style="fill:#392f35;fill-opacity:1;fill-rule:nonzero;stroke:none"
         transform="matrix(0.13333333,0,0,-0.13333333,0,717.25333)" />
      <path
         id="path40"
         d="m 1704.79,2931.57 c 1.98,-29.34 3.97,-58.68 5.95,-88.03 -20.79,-0.9 -22.5,0.6 -24.07,20.92 -0.79,10.2 -2.06,20.37 -2.48,30.59 -0.43,10.65 -0.1,21.33 -0.1,33.35 6.62,1.02 13.66,2.09 20.7,3.17"
         style="fill:#b2b2bc;fill-opacity:1;fill-rule:nonzero;stroke:none"
         transform="matrix(0.13333333,0,0,-0.13333333,0,717.25333)" />
      <path
         id="path41"
         d="m 1619.28,3002.87 c -65.29,9.65 -130.59,19.28 -195.89,28.93 66.63,0.66 132.37,-4.83 195.88,-26 0,-0.98 0.01,-1.95 0.01,-2.93"
         style="fill:#221f1d;fill-opacity:1;fill-rule:nonzero;stroke:none"
         transform="matrix(0.13333333,0,0,-0.13333333,0,717.25333)" />
      <path
         id="path42"
         d="m 1698.78,2828.75 c -21.06,-11.17 -42.39,-16.01 -66.07,-7.21 -13.63,5.08 -28.44,7.02 -42.72,10.37 -11.78,0.69 -23.57,1.4 -35.35,2.09 -1.07,3.12 -2.13,6.24 -3.21,9.36 29.07,2.12 57.26,-2.96 84.4,-12.5 18.29,-6.43 34.95,-5.54 51.6,3.61 3.79,-1.91 7.57,-3.81 11.35,-5.72"
         style="fill:#392f33;fill-opacity:1;fill-rule:nonzero;stroke:none"
         transform="matrix(0.13333333,0,0,-0.13333333,0,717.25333)" />
      <path
         id="path43"
         d="m 1554.64,2834 c 11.78,-0.69 23.57,-1.4 35.35,-2.09 -1.81,-3.67 -6.11,-8.48 -5.02,-10.82 6.38,-13.82 13.79,-27.18 21.31,-40.44 2.78,-4.91 6.79,-9.12 10.24,-13.65 -26.26,7.67 -41.03,27.95 -54.22,49.79 -3.22,5.33 -5.14,11.45 -7.66,17.21"
         style="fill:#7d777c;fill-opacity:1;fill-rule:nonzero;stroke:none"
         transform="matrix(0.13333333,0,0,-0.13333333,0,717.25333)" />
      <path
         id="path44"
         d="m 1330.56,3688.23 c -4.3,7.91 -6.79,12.49 -10.15,18.67 12.17,3.7 23.1,7.03 34.04,10.36 0.99,-1.43 1.98,-2.85 2.97,-4.28 -8.29,-7.64 -16.59,-15.28 -26.86,-24.75"
         style="fill:#7d777c;fill-opacity:1;fill-rule:nonzero;stroke:none"
         transform="matrix(0.13333333,0,0,-0.13333333,0,717.25333)" />
      <path
         id="path45"
         d="m 1616.62,2766.95 c 2.77,-1.24 5.55,-2.48 8.32,-3.73 -2.77,1.25 -5.55,2.49 -8.32,3.73"
         style="fill:#7d777c;fill-opacity:1;fill-rule:nonzero;stroke:none"
         transform="matrix(0.13333333,0,0,-0.13333333,0,717.25333)" />
      <path
         id="path46"
         d="m 1073.64,324.531 c 2.49,1.008 4.99,2.02 7.48,3.028 -2.49,-1.008 -4.99,-2.02 -7.48,-3.028"
         style="fill:#7e777c;fill-opacity:1;fill-rule:nonzero;stroke:none"
         transform="matrix(0.13333333,0,0,-0.13333333,0,717.25333)" />
      <path
         id="path47"
         d="m 1708.34,2831.05 c -1.22,-0.48 -2.44,-0.96 -3.66,-1.44 1.22,0.48 2.44,0.96 3.66,1.44"
         style="fill:#392f33;fill-opacity:1;fill-rule:nonzero;stroke:none"
         transform="matrix(0.13333333,0,0,-0.13333333,0,717.25333)" />
      <path
         id="path48"
         d="m 743,1814.22 c 0.402,0.88 0.801,1.76 1.203,2.65 -0.414,-0.88 -0.812,-1.77 -1.203,-2.65"
         style="fill:#7e777c;fill-opacity:1;fill-rule:nonzero;stroke:none"
         transform="matrix(0.13333333,0,0,-0.13333333,0,717.25333)" />
      <path
         id="path49"
         d="m 1809.99,2555.38 c -38.83,-32.5 -79.06,-62.53 -130.26,-72.97 -26.52,-5.4 -51.77,0 -75.66,10.94 -30.56,14 -54.54,36.1 -72.38,64.65 -2.96,4.73 -5.08,9.96 -8.48,13.14 14.6,-13.01 28.52,-26.89 43.91,-38.87 48.19,-37.52 101.31,-44.85 156.99,-19.96 28.8,12.88 55.68,30.05 83.44,45.29 0.82,-0.74 1.63,-1.48 2.44,-2.22"
         style="fill:#262121;fill-opacity:1;fill-rule:nonzero;stroke:none"
         transform="matrix(0.13333333,0,0,-0.13333333,0,717.25333)" />
      <path
         id="path50"
         d="m 1533.1,2729.42 c 71.16,-66.65 146.73,-69.78 226.14,-18.07 -25.91,-29.06 -89.74,-54.63 -126.96,-50.39 -12.21,1.38 -25.16,6 -35.43,12.73 -23.07,15.15 -44.67,32.54 -66.86,49.02 1.03,2.24 2.08,4.47 3.11,6.71"
         style="fill:#221f1d;fill-opacity:1;fill-rule:nonzero;stroke:none"
         transform="matrix(0.13333333,0,0,-0.13333333,0,717.25333)" />
      <path
         id="path51"
         d="m 1807.55,2557.6 c 2.46,2.11 4.92,4.21 7.37,6.32 0.96,-0.86 1.91,-1.72 2.87,-2.57 -2.6,-1.99 -5.19,-3.98 -7.8,-5.97 -0.81,0.74 -1.62,1.48 -2.44,2.22"
         style="fill:#262121;fill-opacity:1;fill-rule:nonzero;stroke:none"
         transform="matrix(0.13333333,0,0,-0.13333333,0,717.25333)" />
      <path
         id="path52"
         d="m 1147.33,3035.11 0.37,0.25 -0.28,-0.38 c 0.01,0.01 -0.09,0.13 -0.09,0.13"
         style="fill:#262121;fill-opacity:1;fill-rule:nonzero;stroke:none"
         transform="matrix(0.13333333,0,0,-0.13333333,0,717.25333)" />
      <path
         id="path53"
         d="m 1231.73,3839.81 c 4.39,-4.2 8.77,-8.39 15.25,-14.59 3.87,9.45 7.97,15.87 9.08,22.77 4.47,28.05 10.29,56.14 11.55,84.39 7.26,162.15 4.66,324.15 -17.16,485.18 -16.92,124.82 -35.81,249.42 -56.53,373.67 -16.2,97.1 -45.99,190.35 -94.09,276.87 -13.16,23.65 -28.9,45.87 -43.46,68.75 -1.97,-0.96 -3.95,-1.91 -5.92,-2.86 4.38,-15.65 8.75,-31.28 13.13,-46.93 7.28,-24.33 15.71,-48.38 21.63,-73.04 17.04,-71.01 21.09,-143.78 22.06,-216.22 0.97,-72.51 -6.53,-145.1 -6.82,-217.67 -0.31,-75.04 0.85,-150.29 6.46,-225.07 4.94,-65.88 16.49,-131.29 25.88,-196.8 10.71,-74.7 23.49,-149.07 47.13,-220.99 11.62,-35.33 24.57,-70.29 51.81,-97.46 z m 53.52,229.59 c -2.9,-61.12 -4.88,-118 -8.69,-174.75 -1.29,-19.33 -5.76,-38.78 -11.31,-57.42 -7.08,-23.77 -21.22,-26.7 -39.06,-9.96 -25.51,23.95 -38.93,55.12 -50.82,86.9 -24.5,65.45 -37.87,133.72 -48.45,202.49 -10.41,67.7 -20.39,135.48 -28.83,203.44 -5.01,40.3 -7.2,80.99 -9.62,121.57 -1.72,28.87 -3.26,57.9 -2.18,86.76 2.66,71.03 7.68,141.98 10.13,213.01 1.15,33.29 -0.43,66.77 -2.64,100.04 -2.64,39.56 -5.62,79.23 -11.59,118.38 -4.77,31.27 -13.84,61.92 -21.72,92.66 -6.57,25.62 -14.94,50.78 -20.89,76.53 -1.77,7.63 1.94,16.53 3.14,24.85 7.19,-3.74 16.24,-5.82 21.3,-11.47 32.47,-36.28 53.96,-79.44 73.93,-123.26 42.42,-93.1 64.22,-192 80.26,-292.35 11.97,-74.89 24.19,-149.76 34.26,-224.91 8.77,-65.48 16.6,-131.21 21.38,-197.08 5.77,-79.7 7.89,-159.66 11.4,-235.43"
         style="fill:#392f35;fill-opacity:1;fill-rule:nonzero;stroke:none"
         transform="matrix(0.13333333,0,0,-0.13333333,0,717.25333)" />
      <path
         id="path54"
         d="m 1454.74,3625.95 c -14.21,1.8 -27.11,3.6 -40.04,5.03 -16.44,1.82 -26.92,-6.38 -30.23,-21.64 -6.09,-28.17 -11.21,-56.56 -15.86,-85 -2.76,-16.91 -3.53,-34.13 -5.93,-51.11 -0.5,-3.61 -4.15,-6.78 -6.34,-10.15 -2.81,3.39 -7.81,6.61 -8.08,10.19 -3.45,44.94 -7.04,89.9 -8.68,134.92 -0.5,13.76 4,27.96 7.83,41.5 2.06,7.27 6.71,14.27 11.64,20.19 15.8,19 33.93,22.06 54.7,8.94 19.67,-12.43 32.16,-30.78 40.99,-52.87"
         style="fill:#231f20;fill-opacity:1;fill-rule:nonzero;stroke:none"
         transform="matrix(0.13333333,0,0,-0.13333333,0,717.25333)" />
      <path
         id="path55"
         d="m 1648.81,5109.92 c -1.29,3.9 -2.57,7.79 -3.86,11.69 -1.39,-0.1 -2.77,-0.2 -4.15,-0.3 -0.73,-14.9 -1.93,-29.81 -2.09,-44.73 -0.37,-32.9 1.59,-65.92 -0.65,-98.68 -5.32,-78.33 -12.2,-156.56 -19.06,-234.77 -5.82,-66.49 -10.92,-133.09 -19.11,-199.29 -13.56,-109.63 -26.65,-219.11 -29.79,-329.75 -2.57,-90.24 1.52,-179.63 19.76,-268.05 4.62,-22.4 11.78,-44.45 19.85,-65.88 6.51,-17.26 13.67,-17.8 24.15,-3.08 7.04,9.87 13.12,20.7 17.88,31.85 25.65,60.29 39.19,124.03 52.34,187.85 7.98,53.76 19.09,107.29 23.18,161.35 5.85,77.22 9.41,154.85 8.7,232.26 -0.78,85.79 -3.45,171.97 -12.69,257.16 -9.42,86.97 -26.48,173.22 -42.97,259.24 -6.73,35.1 -20.78,68.8 -31.49,103.13 z m 102.33,-677.37 c -3.73,-54.04 -6.3,-130.1 -14.81,-205.48 -12.43,-110.05 -32.41,-218.91 -73.15,-322.69 -5.61,-14.3 -14.5,-27.99 -24.49,-39.73 -12.67,-14.87 -27.43,-14.04 -35.44,3.37 -10.72,23.3 -19.25,48.16 -24.77,73.23 -20.9,94.97 -24.21,191.45 -20.47,288.23 3.58,92.54 12.32,184.59 25.06,276.39 8.61,62.02 13.1,124.63 18.69,187.04 6.35,70.73 11.86,141.53 17.8,212.3 2.65,31.71 6.37,63.37 7.88,95.14 0.98,20.49 -2.2,41.17 -1.66,61.7 0.56,20.98 2.84,41.96 5.65,62.76 0.63,4.58 6.39,11.39 10.33,11.79 4.05,0.42 11.32,-4.9 12.78,-9.2 13.33,-39.33 29.05,-78.27 37.61,-118.7 15.99,-75.56 28.49,-151.91 40.77,-228.2 5.35,-33.27 7.87,-67.15 9.41,-100.86 3.44,-74.98 5.46,-150.03 8.81,-247.09"
         style="fill:#392f33;fill-opacity:1;fill-rule:nonzero;stroke:none"
         transform="matrix(0.13333333,0,0,-0.13333333,0,717.25333)" />
      <path
         id="path56"
         d="m 1793.14,3066.61 c -0.26,-1.8 -0.13,-2.91 -0.58,-3.7 -8.74,-15.43 -13.65,-38.41 -34.02,-38.48 -21.05,-0.08 -35.18,18.29 -48.44,34.09 21.21,19.84 59.77,23.42 83.04,8.09"
         style="fill:#ac85a4;fill-opacity:1;fill-rule:nonzero;stroke:none"
         transform="matrix(0.13333333,0,0,-0.13333333,0,717.25333)" />
      <path
         id="path57"
         d="m 1231.73,3839.81 c -27.24,27.17 -40.19,62.13 -51.81,97.46 -23.64,71.92 -36.42,146.29 -47.13,220.99 -9.39,65.51 -20.94,130.92 -25.88,196.8 -5.61,74.78 -6.77,150.03 -6.46,225.07 0.29,72.57 7.79,145.16 6.82,217.67 -0.97,72.44 -5.02,145.21 -22.06,216.22 -5.92,24.66 -14.35,48.71 -21.63,73.04 2.84,-3.76 6.58,-7.13 8.37,-11.33 14.74,-34.67 29.07,-69.51 43.6,-104.27 45.15,-107.96 60.9,-221.68 67.32,-337.46 2.82,-50.61 7.81,-101.14 13.21,-151.55 5.4,-50.4 12.92,-100.56 18.83,-150.91 8.31,-70.65 16.12,-141.35 23.92,-212.06 8.31,-75.34 12.98,-150.86 5.41,-226.52 -1.8,-17.95 -8.22,-35.44 -12.51,-53.15"
         style="fill:#df9a92;fill-opacity:1;fill-rule:nonzero;stroke:none"
         transform="matrix(0.13333333,0,0,-0.13333333,0,717.25333)" />
      <path
         id="path58"
         d="m 1231.73,3839.81 c 4.29,17.71 10.71,35.2 12.51,53.15 7.57,75.66 2.9,151.18 -5.41,226.52 -7.8,70.71 -15.61,141.41 -23.92,212.06 -5.91,50.35 -13.43,100.51 -18.83,150.91 -5.4,50.41 -10.39,100.94 -13.21,151.55 -6.42,115.78 -22.17,229.5 -67.32,337.46 -14.53,34.76 -28.86,69.6 -43.6,104.27 -1.79,4.2 -5.53,7.57 -8.37,11.33 -4.38,15.65 -8.75,31.28 -13.13,46.93 1.97,0.95 3.95,1.9 5.92,2.86 14.56,-22.88 30.3,-45.1 43.46,-68.75 48.1,-86.52 77.89,-179.77 94.09,-276.87 20.72,-124.25 39.61,-248.85 56.53,-373.67 21.82,-161.03 24.42,-323.03 17.16,-485.18 -1.26,-28.25 -7.08,-56.34 -11.55,-84.39 -1.11,-6.9 -5.21,-13.32 -9.08,-22.77 -6.48,6.2 -10.86,10.39 -15.25,14.59"
         style="fill:#e9c8be;fill-opacity:1;fill-rule:nonzero;stroke:none"
         transform="matrix(0.13333333,0,0,-0.13333333,0,717.25333)" />
      <path
         id="path59"
         d="m 1704.08,4096.78 c -13.15,-63.82 -26.69,-127.56 -52.34,-187.85 -4.76,-11.15 -10.84,-21.98 -17.88,-31.85 -10.48,-14.72 -17.64,-14.18 -24.15,3.08 -8.07,21.43 -15.23,43.48 -19.85,65.88 -18.24,88.42 -22.33,177.81 -19.76,268.05 3.14,110.64 16.23,220.12 29.79,329.75 8.19,66.2 13.29,132.8 19.11,199.29 6.86,78.21 13.74,156.44 19.06,234.77 2.24,32.76 0.28,65.78 0.65,98.68 0.16,14.92 1.36,29.83 2.09,44.73 1.38,0.1 2.76,0.2 4.15,0.3 1.29,-3.9 2.57,-7.79 3.86,-11.69 3.13,-29.58 6.5,-59.15 9.37,-88.76 5.78,-59.68 11.25,-119.38 16.92,-179.07 4.37,-46.02 9.26,-92 13.17,-138.07 4.74,-55.88 9.78,-111.76 12.67,-167.75 2.33,-45.12 2.25,-90.39 2.2,-135.6 -0.1,-96.11 -0.92,-192.22 -1.28,-288.34 -0.02,-5.18 1.45,-10.37 2.22,-15.55"
         style="fill:#df9a92;fill-opacity:1;fill-rule:nonzero;stroke:none"
         transform="matrix(0.13333333,0,0,-0.13333333,0,717.25333)" />
      <path
         id="path60"
         d="m 1704.08,4096.78 c -0.77,5.18 -2.24,10.37 -2.22,15.55 0.36,96.12 1.18,192.23 1.28,288.34 0.05,45.21 0.13,90.48 -2.2,135.6 -2.89,55.99 -7.93,111.87 -12.67,167.75 -3.91,46.07 -8.8,92.05 -13.17,138.07 -5.67,59.69 -11.14,119.39 -16.92,179.07 -2.87,29.61 -6.24,59.18 -9.37,88.76 10.71,-34.33 24.76,-68.03 31.49,-103.13 16.49,-86.02 33.55,-172.27 42.97,-259.24 9.24,-85.19 11.91,-171.37 12.69,-257.16 0.71,-77.41 -2.85,-155.04 -8.7,-232.26 -4.09,-54.06 -15.2,-107.59 -23.18,-161.35"
         style="fill:#e9c8be;fill-opacity:1;fill-rule:nonzero;stroke:none"
         transform="matrix(0.13333333,0,0,-0.13333333,0,717.25333)" />
    </g>
  </g>
</svg>
