<?xml version="1.0" encoding="UTF-8" standalone="no"?>
<!-- Created with Inkscape (http://www.inkscape.org/) -->

<svg
   version="1.1"
   id="svg1"
   width="398.44"
   height="686.84003"
   viewBox="0 0 398.44 686.84003"
   sodipodi:docname="marvin-the-martian-free-vector.pdf"
   xmlns:inkscape="http://www.inkscape.org/namespaces/inkscape"
   xmlns:sodipodi="http://sodipodi.sourceforge.net/DTD/sodipodi-0.dtd"
   xmlns="http://www.w3.org/2000/svg"
   xmlns:svg="http://www.w3.org/2000/svg">
  <defs
     id="defs1" />
  <sodipodi:namedview
     id="namedview1"
     pagecolor="#ffffff"
     bordercolor="#000000"
     borderopacity="0.25"
     inkscape:showpageshadow="2"
     inkscape:pageopacity="0.0"
     inkscape:pagecheckerboard="0"
     inkscape:deskcolor="#d1d1d1">
    <inkscape:page
       x="0"
       y="0"
       inkscape:label="1"
       id="page1"
       width="398.44"
       height="686.84003"
       margin="0"
       bleed="0" />
  </sodipodi:namedview>
  <g
     id="g1"
     inkscape:groupmode="layer"
     inkscape:label="1">
    <g
       id="group-R5">
      <path
         id="path2"
         d="m 1190.21,2019.83 c 0,0 -86.14,-5.97 -157.96,-16.15 0,0 100.51,68.24 157.96,95.17 -4.48,-45.77 0,-79.02 0,-79.02 z m 795.65,-95.79 c 83.48,-51.16 132.62,-89.53 132.62,-89.53 0,0 -4.72,-7.4 -5.39,-16.15 -53.85,38.37 -110.39,63.27 -110.39,63.27 l -26.93,-16.82 c 0,0 -0.68,16.82 0,30.29 -100.97,45.77 -176.36,70.67 -250.41,84.81 2.02,24.91 -5.38,94.92 -5.38,94.92 97.13,-50.02 182.42,-99.63 265.88,-150.79 z M 2936.35,595.922 c -70.01,71.359 -173.67,141.367 -385.04,183.09 -211.36,41.738 -302.92,47.117 -530.44,49.82 -227.53,2.688 -368.88,40.387 -368.88,40.387 0,0 -10.77,153.481 -12.12,238.291 6.39,0 9.42,1.02 9.42,1.02 l -0.33,40.72 52.17,-47.12 c 0,0 158.65,33.65 276.22,86.62 117.57,52.93 184.88,92.43 235.15,135.52 5.4,59.24 8.97,119.35 8.97,119.35 0,0 13.47,-2.9 22.22,-7.61 7.4,-22.22 27.59,-75.39 42.4,-135.98 14.81,-60.58 29.62,-163.36 38.6,-262.99 8.99,-99.618 19.73,-226.149 104.1,-187.548 15.28,-26.933 41.3,-49.371 79.91,-44.89 38.57,4.48 62.81,45.769 69.07,65.5 25.16,-7.153 59.26,15.269 72.72,57.468 13.47,42.16 39.49,136.86 44.88,283.6 5.38,146.75 -9.43,271.96 -55.2,386.39 -45.78,114.44 -44.43,153.49 -47.13,203.29 36.36,29.62 83.48,59.91 110.4,90.21 26.93,30.29 57.45,98.28 35.91,175.47 -21.54,77.16 -63.72,140.9 -117.57,131.02 -53.86,-9.87 -70.01,-61.01 -78.08,-87.93 -8.08,-26.92 -39.51,-122.09 -88.86,-149.9 -49.4,-27.81 -95.17,-36.82 -143.63,-40.39 -35,26.04 -79.86,23.35 -96.92,16.15 -56.54,47.59 -201.03,175.91 -247.71,218.98 -46.68,43.09 -219.01,221.7 -267.47,271.96 -48.47,50.27 -101.42,88.87 -155.27,76.32 2.7,55.62 4.49,85.24 4.49,85.24 0,0 168.28,16.61 296.18,96.04 40.39,-47.12 101.43,-107.7 179.52,-242.33 64.62,0.88 96.93,1.79 96.93,1.79 0,0 77.18,98.72 129.24,164.25 52.05,65.52 109.49,139.12 109.49,139.12 0,0 -166.93,87.95 -168.72,305.15 87.95,12.57 167.82,51.16 183.09,109.5 15.25,58.34 4.48,53.86 8.08,94.24 3.58,40.39 14.35,201.05 8.96,308.76 -5.38,107.7 -2.69,164.25 -140.9,324 -48.47,105.91 -195.67,344.64 -499.05,450.56 68.24,122.07 90.66,186.69 95.16,213.62 4.47,26.92 7.18,63.71 -2.68,81.67 -9.89,17.95 -42.21,38.6 -42.21,38.6 0,0 28.74,88.85 44.89,138.21 16.17,49.36 43.09,114.88 58.33,136.43 -29.61,21.53 -76.29,35.9 -76.29,35.9 l 13.46,27.82 c 0,0 -22.42,20.64 -95.12,36.8 5.39,14.36 10.77,32.31 10.77,32.31 0,0 -108.63,51.17 -273.76,42.19 l -0.34,16.37 c 0,0 -82.23,22.21 -189.93,6.96 -107.7,-15.25 -157.97,-53.85 -157.97,-53.85 l 5.61,-23.11 -51.16,-12.79 -4.71,20.87 c 0,0 -138.673,-50.49 -192.52,-175.69 35,-65.98 67.316,-142.71 90.203,-220.8 -24.235,-12.11 -67.317,-109.05 -56.551,-146.74 10.773,-37.7 113.088,-207.33 113.088,-207.33 0,0 -336.568,-107.7 -490.045,-508.9 -72.699,-107.7 -100.973,-152.13 -96.934,-269.26 4.039,-117.13 25.582,-262.52 39.043,-329.84 -1.347,-32.31 -14.808,-144.06 234.254,-170.98 -2.691,-86.16 -10.773,-215.4 -201.945,-313.69 44.43,-78.08 142.707,-250.4 195.215,-308.29 59.234,-1.35 98.277,0 98.277,0 0,0 127.903,122.51 313.685,215.4 74.05,-29.62 122.52,-45.77 232.91,-57.89 6.73,-35 10.77,-74.05 10.77,-74.05 0,0 -50.48,5.39 -92.22,-32.98 -41.74,-38.37 -213.39,-201.27 -278.01,-263.2 -64.619,-61.93 -281.826,-277.8 -281.826,-277.8 0,0 -80.996,26.72 -126.774,-45.31 -74.047,1.35 -112.418,-13.46 -150.113,0 -37.695,13.46 -63.273,53.18 -88.852,113.76 -25.582,60.58 -63.277,126.55 -135.3,106.36 -72.028,-20.2 -113.094,-89.53 -97.61,-177.71 15.485,-88.18 76.067,-135.3 119.821,-153.48 43.754,-18.17 73.375,-6.06 80.105,-51.83 6.731,-45.77 0.672,-123.86 -12.793,-211.37 -13.461,-87.51 -40.39,-274.65 1.348,-453.7 41.734,-179.049 64.621,-240.99 156.168,-231.56 25.582,-36.348 83.472,-56.09 126.551,-7.621 32.312,-19.778 75.398,-6.309 86.164,52.043 10.769,58.359 10.781,114.898 9.879,234.258 -0.907,119.35 4.48,159.76 8.968,215.41 36.801,-43.09 79.871,-78.98 113.09,-97.82 43.082,17.04 92.453,39.46 92.453,39.46 l 5.387,-66.39 c 0,0 139.114,-82.59 349.124,-102.78 -4.49,-72.24 -17.94,-219.439 -17.94,-219.439 0,0 -154.37,-61.93 -367.989,-87.969 C 660.664,763.32 475.328,768.242 348.773,722.469 222.223,676.699 7.99219,574.832 0,368.398 0,226.59 26.1172,183.52 63.8125,156.59 101.508,129.66 259.469,-8.53906 578.988,0.421875 898.516,9.37891 1074.43,170.492 1156.55,266.082 c 82.13,95.59 183.55,290.797 199.7,330.309 16.16,39.461 32.31,66.398 26.93,102.308 -5.38,35.891 -17.06,100.512 -17.06,135.52 0,35 17.96,129.242 30.07,253.101 52.51,-2.69 98.28,2.69 98.28,2.69 0,0 17.5,-107.701 26.93,-201.94 9.43,-94.238 10.1,-160.211 11.44,-201.949 1.34,-41.73 0.67,-50.48 12.12,-67.312 11.44,-16.829 99.41,-144.489 177.5,-226.18 78.08,-81.68 184.88,-186.707 350.04,-249.52 165.12,-62.8199 329.37,-97.8277 536.7,-60.1168 207.33,37.6878 358.03,141.3598 368.88,223.4768 10.86,82.121 28.28,218.101 -41.73,289.453"
         style="fill:#100f0d;fill-opacity:1;fill-rule:nonzero;stroke:none"
         transform="matrix(0.13333333,0,0,-0.13333333,0,686.84)" />
      <path
         id="path3"
         d="m 1133.67,4869.5 c 0,0 -30.53,68.21 -55.66,147.2 -3.58,-0.9 -6.28,-1.57 -6.28,-1.57 l -6.73,17.16 c 0,0 -103.66,-55.97 -135.973,-129.58 28.727,-59.23 62.825,-140.91 83.473,-207.33 63.73,25.13 178.61,54.74 362.6,55.64 184,0.91 336.57,-39.49 396.71,-62.82 15.27,51.16 67.32,193.87 87.97,246.82 -28.74,15.27 -53.64,21.54 -53.64,21.54 l -57.22,-99.62 41.74,102.99 -6.07,2.7 15.83,35.33 c 0,0 -26.8,14.24 -69,21.43 -16.16,-44.88 -52.04,-130.14 -52.04,-130.14 l 34.54,131.48 -7.07,2.47 11.45,37.03 c 0,0 -121.51,44.43 -245.37,28.27 -3.36,-47.79 -18.17,-138.66 -18.17,-138.66 l -0.68,135.97 h -6.39 l 1.68,26.92 c 0,0 -72.92,13.46 -144.27,2.25 -71.36,-11.22 -96.03,-22 -132.83,-39.5 2.69,-19.74 2.69,-35.9 2.69,-35.9 l -6.29,-0.56 13.46,-109.38 c 0,0 -19.52,55.53 -29.28,107.36 -20.87,-2.02 -59.57,-15.14 -59.57,-15.14 l 40.39,-152.36"
         style="fill:#faea48;fill-opacity:1;fill-rule:nonzero;stroke:none"
         transform="matrix(0.13333333,0,0,-0.13333333,0,686.84)" />
      <path
         id="path4"
         d="m 959.098,4562.1 c 0,0 62.822,36.35 255.342,59.24 192.52,22.89 475.24,18.85 597.75,-71.36 5.39,43.09 11.68,63.28 -2.22,76.75 -13.93,13.46 -86.63,62.36 -274.2,81.21 -187.59,18.85 -297.98,9.89 -420.05,-16.14 -122.072,-26.04 -129.24,-43.99 -139.118,-73.6 -9.879,-29.63 -14.36,-46.68 -17.504,-56.1"
         style="fill:#f3a20f;fill-opacity:1;fill-rule:nonzero;stroke:none"
         transform="matrix(0.13333333,0,0,-0.13333333,0,686.84)" />
      <path
         id="path5"
         d="m 1071.73,4339.29 c 0,0 96.26,37.02 210.03,48.46 -26.26,81.46 -12.12,125.21 14.13,158.19 26.25,32.99 76.07,45.11 119.82,42.41 43.76,-2.69 122.74,-15.93 131.73,-102.09 2.27,-68.9 -5.38,-99.63 -5.38,-99.63 0,0 115.73,-17.59 178.59,-38.59 39.5,80.78 63.27,129.92 70.67,146.07 7.42,16.16 11.45,21.55 4.05,27.94 -7.41,6.39 -107.91,81.79 -379.88,79.09 -271.95,-2.69 -419.138,-59.23 -436.197,-65.96 -17.063,-6.74 -17.051,-8.54 -12.113,-17.96 4.929,-9.43 61.47,-112.18 104.55,-177.93"
         style="fill:#f3a20f;fill-opacity:1;fill-rule:nonzero;stroke:none"
         transform="matrix(0.13333333,0,0,-0.13333333,0,686.84)" />
      <path
         id="path6"
         d="m 1327.98,4393.36 c 0,0 -4.94,71.34 8.97,91.1 13.92,19.75 39.95,32.32 74.95,30.52 35.01,-1.8 74.05,-16.61 76.74,-58.34 2.7,-41.74 0,-65.08 0,-65.08 h 22.44 c 0,0 13.92,73.62 0,110.41 -13.92,36.79 -43.99,53.41 -103.22,53.85 -59.24,0.44 -92.9,-21.99 -105.01,-66.87 -12.12,-44.88 12.11,-97.39 12.11,-97.39 l 13.02,1.8"
         style="fill:#f3a20f;fill-opacity:1;fill-rule:nonzero;stroke:none"
         transform="matrix(0.13333333,0,0,-0.13333333,0,686.84)" />
      <path
         id="path7"
         d="m 1359.84,4395.16 c 0,0 0,38.59 0,57.44 0,18.85 17.06,30.51 46.23,30.97 29.16,0.45 48.02,-7.63 50.26,-35.01 2.24,-27.38 1.79,-53.4 1.79,-53.4 0,0 -58.34,0.45 -98.28,0"
         style="fill:#f3a20f;fill-opacity:1;fill-rule:nonzero;stroke:none"
         transform="matrix(0.13333333,0,0,-0.13333333,0,686.84)" />
      <path
         id="path8"
         d="m 639.574,3934.73 c 0,0 108.293,203.29 324.75,323.11 216.466,119.82 458.796,113.09 623.046,87.51 164.25,-25.58 402.54,-114 580.24,-372.48 -129.24,111.3 -373.8,281.83 -764.01,280.04 -390.21,-1.8 -602.92,-162.46 -764.026,-318.18"
         style="fill:#38b33f;fill-opacity:1;fill-rule:nonzero;stroke:none"
         transform="matrix(0.13333333,0,0,-0.13333333,0,686.84)" />
      <path
         id="path9"
         d="m 514.371,3278.19 c 0,0 64.633,231.56 418.258,391.32 353.621,159.75 748.541,107.7 980.101,0 231.56,-107.71 359.01,-238.75 439.79,-367.99 7.17,166.94 11.65,232.01 6.27,297.98 -5.39,65.97 -18.84,122.51 -95.58,222.14 -76.74,99.63 -251.76,265.22 -486.02,339.27 -234.26,74.04 -525.1,94.89 -782.194,-21.54 -257.101,-116.44 -352.73,-245.03 -399.851,-308.3 -47.118,-63.28 -114.43,-156.18 -110.395,-276 4.039,-119.82 20.195,-229.31 29.621,-276.88"
         style="fill:#38b33f;fill-opacity:1;fill-rule:nonzero;stroke:none"
         transform="matrix(0.13333333,0,0,-0.13333333,0,686.84)" />
      <path
         id="path10"
         d="m 721.699,3080.72 c 0,0 -110.394,8.99 -158.863,47.58 -48.465,38.59 -49.367,79.87 -8.074,162.45 41.289,82.57 164.246,258.5 422.734,362.6 258.484,104.11 545.714,113.08 852.664,12.56 306.95,-100.52 445.16,-304.7 492.28,-376.06 47.13,-71.35 51.6,-172.32 -129.24,-204.63 1.35,26.92 4.94,40.39 4.94,40.39 0,0 66.41,6.28 80.76,49.36 14.39,43.08 -28.72,122.95 -83.48,178.6 -54.73,55.65 -248.6,263.89 -595.05,301.58 -346.43,37.7 -678.515,-43.09 -840.073,-186.69 -161.551,-143.6 -248.621,-344.2 -46.676,-354.97 6.731,-10.77 8.078,-32.77 8.078,-32.77"
         style="fill:#38b33f;fill-opacity:1;fill-rule:nonzero;stroke:none"
         transform="matrix(0.13333333,0,0,-0.13333333,0,686.84)" />
      <path
         id="path11"
         d="m 652.598,3278.19 c 0,0 -42.2,-62.85 -19.754,-94.25 22.445,-31.41 72.699,-35 72.699,-35 0,0 -16.145,66.43 -52.945,129.25"
         style="fill:#38b33f;fill-opacity:1;fill-rule:nonzero;stroke:none"
         transform="matrix(0.13333333,0,0,-0.13333333,0,686.84)" />
      <path
         id="path12"
         d="m 2228.2,3255.52 c 0,0 -17.63,-48.81 -24.9,-94.91 40.39,7.4 67.52,31.87 24.9,94.91"
         style="fill:#38b33f;fill-opacity:1;fill-rule:nonzero;stroke:none"
         transform="matrix(0.13333333,0,0,-0.13333333,0,686.84)" />
      <path
         id="path13"
         d="m 669.867,3308.7 c 0,0 34.328,52.51 57.891,76.07 -1.348,-62.61 1.125,-105.69 11.894,-183.77 10.774,-78.09 30.516,-150.8 46.672,-192.08 -2.695,-53.85 -19.746,-167.83 -154.375,-260.28 -8.078,0 -23.34,0 -23.34,0 0,0 97.829,55.65 129.246,161.56 31.418,105.9 37.243,215.41 -67.988,398.5"
         style="fill:#38b33f;fill-opacity:1;fill-rule:nonzero;stroke:none"
         transform="matrix(0.13333333,0,0,-0.13333333,0,686.84)" />
      <path
         id="path14"
         d="m 572.934,2712.97 54.859,1.68 c 0,0 78.422,-143.04 149.773,-257.48 -19.519,0 -43.078,0 -43.078,0 0,0 -74.269,100.75 -161.554,255.8"
         style="fill:#38b33f;fill-opacity:1;fill-rule:nonzero;stroke:none"
         transform="matrix(0.13333333,0,0,-0.13333333,0,686.84)" />
      <path
         id="path15"
         d="m 657.984,2727.11 c 0,0 124.75,77.17 154.371,219.88 36.801,-90.64 136.415,-216.31 280.925,-290.8 -63.72,-22.43 -183.089,-110.4 -280.925,-191.17 -62.839,114.88 -154.371,262.09 -154.371,262.09"
         style="fill:#38b33f;fill-opacity:1;fill-rule:nonzero;stroke:none"
         transform="matrix(0.13333333,0,0,-0.13333333,0,686.84)" />
      <path
         id="path16"
         d="m 2190.5,3306.01 c 0,0 9.77,-9.76 15.49,-19.52 -9.43,-16.16 -29.29,-93.57 -29.29,-93.57 0,0 11.45,69 13.8,113.09"
         style="fill:#38b33f;fill-opacity:1;fill-rule:nonzero;stroke:none"
         transform="matrix(0.13333333,0,0,-0.13333333,0,686.84)" />
      <path
         id="path17"
         d="m 2170.98,3170.04 c 0,0 -21.54,-114.44 -65.97,-197.24 14.15,-51.16 52.74,-138 125.44,-209.8 27.83,0 55.64,0 55.64,0 0,0 -61.05,36.81 -98.74,141.82 -37.7,105.01 -33.05,162.58 -16.37,265.22"
         style="fill:#38b33f;fill-opacity:1;fill-rule:nonzero;stroke:none"
         transform="matrix(0.13333333,0,0,-0.13333333,0,686.84)" />
      <path
         id="path18"
         d="m 2083.47,2931.07 c 0,0 -59.91,-129.92 -209.34,-230.89 71.81,-82.58 121.16,-146.28 158.85,-210.02 45.78,71.79 169.64,253.99 169.64,253.99 0,0 -69.54,49.82 -119.15,186.92"
         style="fill:#38b33f;fill-opacity:1;fill-rule:nonzero;stroke:none"
         transform="matrix(0.13333333,0,0,-0.13333333,0,686.84)" />
      <path
         id="path19"
         d="m 2233.14,2731.58 h 71.8 l -199.93,-256.24 h -40.39 l 168.52,256.24"
         style="fill:#38b33f;fill-opacity:1;fill-rule:nonzero;stroke:none"
         transform="matrix(0.13333333,0,0,-0.13333333,0,686.84)" />
      <path
         id="path20"
         d="m 1042.11,3571.23 c 0,0 115.79,44.43 285.42,55.2 52.5,-133.28 60.59,-292.15 59.24,-445.63 -1.35,-153.47 -52.51,-316.38 -135.98,-327.15 -83.47,-10.76 -169.63,131.94 -201.94,316.39 -32.31,184.43 -13.46,308.3 -6.74,401.19"
         style="fill:#ffffff;fill-opacity:1;fill-rule:nonzero;stroke:none"
         transform="matrix(0.13333333,0,0,-0.13333333,0,686.84)" />
      <path
         id="path21"
         d="m 1325.73,3311.39 c 34.1,1 53.86,-60.12 48.48,-107.7 -5.39,-47.57 -19.75,-94.25 -57.45,-95.14 -37.7,-0.9 -52.96,57.43 -51.16,110.39 1.8,52.96 29.61,91.56 60.13,92.45"
         style="fill:#100f0d;fill-opacity:1;fill-rule:nonzero;stroke:none"
         transform="matrix(0.13333333,0,0,-0.13333333,0,686.84)" />
      <path
         id="path22"
         d="m 1551.92,3626.43 c 0,0 167.84,-13.47 271.04,-62.84 23.35,-105.01 18.85,-245.46 0,-365.28 -18.84,-119.82 -63.27,-324.46 -184.44,-324.46 -106.36,0 -125.2,253.1 -133.28,302.91 -8.08,49.82 -7.17,297.08 46.68,449.67"
         style="fill:#ffffff;fill-opacity:1;fill-rule:nonzero;stroke:none"
         transform="matrix(0.13333333,0,0,-0.13333333,0,686.84)" />
      <path
         id="path23"
         d="m 1597.47,3311.41 c 40.38,1.4 50.47,-58.36 49.6,-101.44 -0.93,-43.08 -23.35,-100.55 -57.48,-101.43 -34.08,-0.89 -52.92,41.31 -52.92,110.41 0,69.11 35.42,91.57 60.8,92.46"
         style="fill:#100f0d;fill-opacity:1;fill-rule:nonzero;stroke:none"
         transform="matrix(0.13333333,0,0,-0.13333333,0,686.84)" />
      <path
         id="path24"
         d="m 1398.43,2581.71 c 0,0 13.46,-105.92 9.88,-149.91 -14.36,25.14 -20.64,52.97 -54.75,43.54 -34.11,-9.42 -54.76,-25.57 -187.58,-153.93 -132.84,-128.34 -414.664,-402.99 -414.664,-402.99 0,0 30.965,-16.59 50.485,-59.01 59.238,58.57 214.739,193.2 397.829,280.71 14.81,90.2 59.68,176.8 118.03,229.75 -61.94,-88.85 -104.12,-200.13 -100.53,-338.36 3.6,-138.23 32.33,-281.81 63.73,-372.48 31.41,-90.64 25.13,-103.2 68.89,-118.01 43.75,-14.81 85.48,-16.16 125.87,-15.48 40.39,0.67 137.32,19.52 154.15,36.35 16.84,16.82 43.29,148.33 53.18,247.04 9.89,98.73 41.27,350.92 -75.39,519.67 61.05,-35.9 82.56,-122.95 103.2,-213.6 65.54,-26.03 299.8,-161.57 420.97,-250.43 14.35,29.62 50.26,54.76 50.26,54.76 0,0 -150.79,136.41 -226.18,202.83 -75.39,66.42 -225.74,222.6 -286.32,287.22 -60.59,64.62 -129.24,96.03 -157.06,15.25 2.68,78.98 2.68,157.08 2.68,157.08 0,0 -62.61,-3.62 -116.68,0"
         style="fill:#ee2b21;fill-opacity:1;fill-rule:nonzero;stroke:none"
         transform="matrix(0.13333333,0,0,-0.13333333,0,686.84)" />
      <path
         id="path25"
         d="m 768.363,1778.43 c 0,0 32.317,50.23 -17.047,100.51 -49.359,50.28 -105.007,26.02 -115.781,6.27 41.297,-1.77 106.801,-26 132.828,-106.78"
         style="fill:#ffffff;fill-opacity:1;fill-rule:nonzero;stroke:none"
         transform="matrix(0.13333333,0,0,-0.13333333,0,686.84)" />
      <path
         id="path26"
         d="m 402.629,1353.89 c 0,0 -14.813,3.36 -25.582,20.19 21.543,-4.04 94.242,-22.43 196.562,-10.09 -11.668,-16.37 -41.285,-19.99 -41.285,-19.99 0,0 -7.183,-67.32 0.895,-193.87 8.074,-126.55 26.937,-208.22 44.879,-247.72 17.941,-39.48 38.136,-66.398 56.09,-52.5 17.957,13.93 23.332,55.199 25.582,92.891 2.25,37.699 0,147.209 0,233.369 0,86.16 18.007,257.15 47.375,360.81 29.363,103.67 61.671,204.64 14.554,266.57 -47.121,61.93 -126.554,55.19 -204.636,49.81 -78.083,-5.39 -130.594,14.8 -166.942,87.51 -36.348,72.7 -56.543,156.17 -122.516,137.32 -65.964,-18.84 -75.386,-76.73 -74.042,-119.82 1.343,-43.08 41.734,-138.67 110.398,-154.82 68.66,-16.16 92.894,-25.58 94.238,-102.32 1.348,-76.74 -26.926,-251.76 -35,-320.42 -8.082,-68.66 1.344,-236.94 28.27,-350.04 26.926,-113.079 45.722,-166.051 98.027,-171.43 -41.027,99.621 -51.808,176.82 -55.398,243.25 -3.586,66.39 3.597,191.17 8.531,251.3"
         style="fill:#ffffff;fill-opacity:1;fill-rule:nonzero;stroke:none"
         transform="matrix(0.13333333,0,0,-0.13333333,0,686.84)" />
      <path
         id="path27"
         d="m 434.488,1337.73 c 0,0 33.957,-6.35 65.528,-4.51 -3.598,-70.89 -6.289,-170.5 6.277,-273.71 12.57,-103.24 38.602,-176.151 66.418,-213.311 -17.949,-20.949 -45.781,-38.027 -85.266,13.141 -39.484,51.152 -53.84,149.01 -60.132,246.82 -6.29,97.83 7.175,231.57 7.175,231.57"
         style="fill:#ffffff;fill-opacity:1;fill-rule:nonzero;stroke:none"
         transform="matrix(0.13333333,0,0,-0.13333333,0,686.84)" />
      <path
         id="path28"
         d="m 607.266,1792.77 c 0,0 -130.59,-68.66 -68.661,-257.13 -13.464,103.66 -1.347,188.47 68.661,257.13"
         style="fill:#100f0d;fill-opacity:1;fill-rule:nonzero;stroke:none"
         transform="matrix(0.13333333,0,0,-0.13333333,0,686.84)" />
      <path
         id="path29"
         d="m 1190.21,1987.53 c 0,0 -144.5,-7.18 -213.608,-28.72 92.438,-59.24 233.358,-157.07 233.358,-157.07 0,0 -17.2,96.42 -19.75,185.79"
         style="fill:#38b33f;fill-opacity:1;fill-rule:nonzero;stroke:none"
         transform="matrix(0.13333333,0,0,-0.13333333,0,686.84)" />
      <path
         id="path30"
         d="M 946.078,1939.96 811.449,1827.78 c 0,0 5.383,-41.29 -18.847,-69.13 75.39,-20.61 254.898,-81.66 435.308,-100.5 -187.14,-5.39 -456.394,6.06 -456.394,6.06 0,0 -2.7,-43.76 -13.469,-76.07 -10.766,-32.31 -36.348,-124.57 -36.348,-124.57 0,0 49.817,-65.26 95.586,-97.57 102.32,32.31 323.115,109.05 460.435,185.79 -47.12,-59.24 -60.59,-95.59 -317.724,-232.91 100.964,-48.47 211.364,-91.55 362.144,-99.62 150.79,-8.09 205.99,-2.7 281.38,10.77 -45.77,63.27 -103.66,134.63 -122.51,255.79 64.62,-75.39 172.32,-185.79 253.1,-236.94 105.02,21.53 273.3,74.04 438.89,211.37 -98.28,30.96 -494.09,140 -494.09,140 0,0 -15.48,-54.52 -26.92,-62.59 -11.45,-8.09 -92.89,-43.76 -173.67,-44.44 -80.78,-0.67 -159.54,8.08 -185.8,46.45 -26.25,38.38 -47.79,120.5 -57.21,156.84 -9.43,36.35 -14.81,59.92 -14.81,59.92 l -274.422,183.53"
         style="fill:#38b33f;fill-opacity:1;fill-rule:nonzero;stroke:none"
         transform="matrix(0.13333333,0,0,-0.13333333,0,686.84)" />
      <path
         id="path31"
         d="m 778.762,1729.5 c 0,0 -0.969,-27.39 -1.864,-35.01 30.071,-1.33 154.821,-7.18 154.821,-7.18 l -152.957,42.19"
         style="fill:#38b33f;fill-opacity:1;fill-rule:nonzero;stroke:none"
         transform="matrix(0.13333333,0,0,-0.13333333,0,686.84)" />
      <path
         id="path32"
         d="m 715.641,1419.85 c 0,0 -7.403,-39.04 -8.75,-55.19 32.98,-37.71 90.199,-88.86 90.199,-88.86 v 61.93 l -81.449,82.12"
         style="fill:#38b33f;fill-opacity:1;fill-rule:nonzero;stroke:none"
         transform="matrix(0.13333333,0,0,-0.13333333,0,686.84)" />
      <path
         id="path33"
         d="m 830.074,1337.73 254.456,88.85 -178.385,-96.26 0.668,-30.96 -76.739,-30.96 v 69.33"
         style="fill:#38b33f;fill-opacity:1;fill-rule:nonzero;stroke:none"
         transform="matrix(0.13333333,0,0,-0.13333333,0,686.84)" />
      <path
         id="path34"
         d="m 939.125,1291.95 c 0,0 91.545,-61.92 275.995,-90.87 184.44,-28.94 286.08,-20.19 399.17,-4.04 1.35,-31.64 0,-60.58 0,-60.58 0,0 -169.63,-32.98 -391.77,0 -181.07,24.23 -283.395,84.81 -283.395,84.81 v 70.68"
         style="fill:#38b33f;fill-opacity:1;fill-rule:nonzero;stroke:none"
         transform="matrix(0.13333333,0,0,-0.13333333,0,686.84)" />
      <path
         id="path35"
         d="m 1566.5,1345.81 c 0,0 65.97,-72.03 146.75,-122.52 -0.68,-33.65 -16.84,-74.71 -16.84,-74.71 l -53.85,58.31 v 23.81 c 0,0 -39.04,52.5 -76.06,115.11"
         style="fill:#38b33f;fill-opacity:1;fill-rule:nonzero;stroke:none"
         transform="matrix(0.13333333,0,0,-0.13333333,0,686.84)" />
      <path
         id="path36"
         d="m 1746.69,1215.47 c 0,0 111.28,16.35 248.6,88.14 137.32,71.82 192.08,125.67 192.08,125.67 l -5.38,-88.86 c 0,0 -105.92,-79.38 -223.49,-124.95 -117.57,-45.57 -227.97,-73.42 -227.97,-73.42 0,0 11.87,36.38 16.16,73.42"
         style="fill:#38b33f;fill-opacity:1;fill-rule:nonzero;stroke:none"
         transform="matrix(0.13333333,0,0,-0.13333333,0,686.84)" />
      <path
         id="path37"
         d="m 2227.52,1477.07 c 0,0 -26.46,47.12 -40.15,82.79 -96.5,16.17 -342.86,30.97 -342.86,30.97 0,0 234.25,-60.58 383.01,-113.76"
         style="fill:#38b33f;fill-opacity:1;fill-rule:nonzero;stroke:none"
         transform="matrix(0.13333333,0,0,-0.13333333,0,686.84)" />
      <path
         id="path38"
         d="m 1700.01,1698.54 c 0,0 -11.68,-62.84 -16.16,-73.61 71.8,0.91 299.77,0.02 489.15,-28.71 -20.63,75.39 -22.42,107.7 -19.73,124.74 -24.23,13.46 -34.11,36.81 -38.62,58.36 -38.58,26.92 -104.11,66.4 -110.4,66.4 -25.99,-15.25 -160.62,-107.68 -304.24,-147.18"
         style="fill:#38b33f;fill-opacity:1;fill-rule:nonzero;stroke:none"
         transform="matrix(0.13333333,0,0,-0.13333333,0,686.84)" />
      <path
         id="path39"
         d="m 1726.03,1947.14 c 0,0 0.89,-104.99 -20.65,-213.6 62.85,23.35 199.24,87.05 239.63,112.18 -0.87,8.99 0,20.43 0,20.43 0,0 -99.3,-59.65 -167.14,-83.47 80.78,47.79 145.4,98.95 145.4,98.95 0,0 -84.14,42.85 -197.24,65.51"
         style="fill:#38b33f;fill-opacity:1;fill-rule:nonzero;stroke:none"
         transform="matrix(0.13333333,0,0,-0.13333333,0,686.84)" />
      <path
         id="path40"
         d="m 2156.18,1763.83 c 0,0 -35.01,35.01 16.82,100.98 51.84,65.96 94.24,39.04 94.24,39.04 0,0 -97.61,-27.6 -111.06,-140.02"
         style="fill:#ffffff;fill-opacity:1;fill-rule:nonzero;stroke:none"
         transform="matrix(0.13333333,0,0,-0.13333333,0,686.84)" />
      <path
         id="path41"
         d="m 2548.62,1763.83 c 0,0 -4.04,51.16 68.66,96.26 72.7,45.11 98.96,92.9 96.26,160.21 -2.7,67.32 -44.28,147.42 -82.37,145.4 -38.13,-2.02 -50.24,-47.79 -63.7,-85.49 -13.47,-37.7 -38.37,-115.11 -90.21,-143.38 -51.83,-28.27 -66.64,-37.7 -149.43,-49.14 -82.81,-11.44 -122.51,-56.55 -138,-111.74 -15.48,-55.2 -1.35,-123.84 28.27,-198.24 29.62,-74.39 78.76,-163.71 106.57,-300.12 27.85,-136.42 30.54,-252.2 40.41,-313.238 9.87,-61.032 17.27,-87.731 40.83,-89.082 23.56,-1.34 43.08,61.941 52.5,119.832 9.43,57.888 13.47,139.798 0.91,225.968 -12.56,86.16 -23.11,119.35 -23.11,119.35 0,0 -16.17,1.68 -24.24,7.07 34.67,-1.35 76.06,5.05 124.53,17.17 48.47,12.11 64.63,27.6 73.38,43.75 2.01,-19.52 -13.47,-32.32 -13.47,-32.32 0,0 15.48,-65.29 20.87,-155.48 5.38,-90.21 1.35,-186.47 -6.05,-230.231 -7.42,-43.75 -20.2,-88.168 -20.2,-88.168 0,0 26.92,2.68 43.75,92.891 16.83,90.198 37.7,212.038 25.58,361.468 -12.11,149.45 -39.05,198.59 -59.91,253.11 -20.87,54.53 -39.04,118.48 -38.37,169.64 -8.75,-4.72 -13.46,-15.49 -13.46,-15.49"
         style="fill:#ffffff;fill-opacity:1;fill-rule:nonzero;stroke:none"
         transform="matrix(0.13333333,0,0,-0.13333333,0,686.84)" />
      <path
         id="path42"
         d="m 2468.73,1340.42 c 0,0 65.54,4.48 100.54,19.74 5.39,-31.86 13.01,-104.11 16.58,-156.17 3.62,-52.05 3.16,-167.15 -10.98,-233.791 -14.13,-66.648 -35,-137.328 -79.43,-135.308 -28.28,0.679 -41.73,40.359 -41.73,40.359 0,0 25.57,39.742 37.02,116.48 11.44,76.74 12.58,153.93 -0.89,239.18 -13.46,85.28 -21.11,109.51 -21.11,109.51"
         style="fill:#ffffff;fill-opacity:1;fill-rule:nonzero;stroke:none"
         transform="matrix(0.13333333,0,0,-0.13333333,0,686.84)" />
      <path
         id="path43"
         d="m 2382.14,1712.88 c 0,0 128.78,-35.89 85.7,-256.68 2.69,125.21 -17.94,188.93 -85.7,256.68"
         style="fill:#100f0d;fill-opacity:1;fill-rule:nonzero;stroke:none"
         transform="matrix(0.13333333,0,0,-0.13333333,0,686.84)" />
      <path
         id="path44"
         d="m 1292.52,1092.03 c 0,0 37.7,-4.71 70.69,-4.71 -4.71,-45.1 -24.46,-174.558 -26.26,-200.601 -1.79,-26.047 -5.39,-41.739 -15.26,-43.078 -9.86,-1.34 -49.81,0 -48.46,21.988 1.35,21.98 19.29,226.401 19.29,226.401"
         style="fill:#ee2b21;fill-opacity:1;fill-rule:nonzero;stroke:none"
         transform="matrix(0.13333333,0,0,-0.13333333,0,686.84)" />
      <path
         id="path45"
         d="m 1523.41,1092.03 c 0,0 53.19,4.71 84.83,10.1 0,-49.14 4.56,-160.88 6.64,-195.22 2.11,-34.32 6.81,-57.539 -6.98,-59.91 -13.8,-2.352 -49.48,-6.391 -51.5,17.84 -2.02,24.23 -21.54,162.57 -32.99,227.19"
         style="fill:#ee2b21;fill-opacity:1;fill-rule:nonzero;stroke:none"
         transform="matrix(0.13333333,0,0,-0.13333333,0,686.84)" />
      <path
         id="path46"
         d="m 1242.71,843.262 c 0,0 1.69,-6.692 5.73,-11.063 -25.92,-16.828 -92.22,-57.558 -92.22,-57.558 0,0 -20.54,21.211 -40.39,28.269 30.29,6.738 126.88,40.352 126.88,40.352"
         style="fill:#ffffff;fill-opacity:1;fill-rule:nonzero;stroke:none"
         transform="matrix(0.13333333,0,0,-0.13333333,0,686.84)" />
      <path
         id="path47"
         d="m 1127.39,758.82 c 0,0 -30.96,23.328 -72.25,29.16 -45.77,-8.519 -141.367,-29.16 -183.554,-32.32 39.043,-14.34 75.394,-41.262 109.945,-70.879 39.939,18.84 145.859,74.039 145.859,74.039"
         style="fill:#ffffff;fill-opacity:1;fill-rule:nonzero;stroke:none"
         transform="matrix(0.13333333,0,0,-0.13333333,0,686.84)" />
      <path
         id="path48"
         d="m 476.23,687 c 0,0 67.758,-3.129 170.528,-35.441 80.777,-26.02 131.047,-69.989 131.047,-69.989 0,0 77.183,48.469 170.972,88.86 -23.789,23.312 -91.101,62.14 -155.05,76.281 C 737.855,741.992 559.934,719.551 476.23,687"
         style="fill:#ffffff;fill-opacity:1;fill-rule:nonzero;stroke:none"
         transform="matrix(0.13333333,0,0,-0.13333333,0,686.84)" />
      <path
         id="path49"
         d="m 457.828,715.07 c 0,0 -176.367,-25.578 -282.726,-110.398 C 68.7461,519.852 42.2617,448.289 35.0898,389.941 c -5.3867,-51.16 35.004,-86.16 35.004,-86.16 0,0 30.5192,120.278 87.9572,195.668 57.441,75.391 146.308,164.672 299.777,215.621"
         style="fill:#ffffff;fill-opacity:1;fill-rule:nonzero;stroke:none"
         transform="matrix(0.13333333,0,0,-0.13333333,0,686.84)" />
      <path
         id="path50"
         d="m 409.359,661.43 c 0,0 -144.496,-64.16 -219.886,-173.68 99.625,5.398 281.804,-27.809 390.414,-79.871 40.386,67.32 103.359,109.492 165.664,154.391 -61.547,52.039 -183.617,90.64 -336.192,99.16"
         style="fill:#ffffff;fill-opacity:1;fill-rule:nonzero;stroke:none"
         transform="matrix(0.13333333,0,0,-0.13333333,0,686.84)" />
      <path
         id="path51"
         d="m 561.039,380.051 c 0,0 -201.934,86.16 -394.906,72.699 -47.574,-70 -65.528,-173.211 -65.528,-173.211 0,0 126.551,-99.648 400.301,-124.758 -7.179,105.039 60.133,225.27 60.133,225.27"
         style="fill:#ffffff;fill-opacity:1;fill-rule:nonzero;stroke:none"
         transform="matrix(0.13333333,0,0,-0.13333333,0,686.84)" />
      <path
         id="path52"
         d="m 534.121,154.781 c 0,0 -4.488,143.61 78.981,244.117 83.468,100.551 174.132,154.403 335.675,238.762 165.143,72.692 263.873,127.43 328.503,177.711 25.12,-6.269 57.43,0 57.43,0 0,0 6.28,-68.242 8.98,-78.992 -17.96,-26.91 -105,-176.809 -140.91,-227.969 C 1166.87,457.262 1060.08,301.082 913.773,236.469 767.473,171.84 657.086,154.781 534.121,154.781"
         style="fill:#ffffff;fill-opacity:1;fill-rule:nonzero;stroke:none"
         transform="matrix(0.13333333,0,0,-0.13333333,0,686.84)" />
      <path
         id="path53"
         d="m 1301.95,755.461 c 22.43,-15.27 22.22,-77.41 -46.45,-140.691 -68.66,-63.27 -108.37,-37.7 -121.16,-28.95 -12.79,8.75 -29.62,70.012 44.42,133.289 74.05,63.27 106.36,47.801 123.19,36.352"
         style="fill:#100f0d;fill-opacity:1;fill-rule:nonzero;stroke:none"
         transform="matrix(0.13333333,0,0,-0.13333333,0,686.84)" />
      <path
         id="path54"
         d="m 37.1094,291.992 c 0,0 -4.0391,-49.801 25.2422,-87.16 C 91.6367,167.461 190.367,82.1016 387.816,46.1914 585.27,10.2813 761.195,31.832 894.023,104.52 c 132.837,72.71 210.927,132.82 306.057,283.609 95.14,150.793 124.76,214.062 138.67,253.101 13.92,39.04 15.26,48.942 12.12,48.051 -3.15,-0.929 -31.41,-57.89 -52.51,-91.543 C 1277.27,564.07 1174.05,392.629 1085.2,315.43 996.344,238.25 898.516,161.969 661.566,128.762 424.617,95.5508 162.988,163.559 37.1094,291.992"
         style="fill:#ee2b21;fill-opacity:1;fill-rule:nonzero;stroke:none"
         transform="matrix(0.13333333,0,0,-0.13333333,0,686.84)" />
      <path
         id="path55"
         d="m 1561.11,815.371 c 0,0 6.06,-81.449 4.72,-106.359 39.71,-53.18 82.79,-109.723 163.57,-192.512 80.78,-82.809 213.83,-184.898 352.94,-244.16 139.13,-59.219 357.23,-96.93 556.48,-47.551 -27.81,99.621 -87.98,155.262 -144.52,206.422 -56.54,51.16 -165.8,141.828 -394.33,193.871 -228.54,52.059 -421.61,140.809 -482.58,190.289 -21.49,-6.289 -56.28,0 -56.28,0"
         style="fill:#ffffff;fill-opacity:1;fill-rule:nonzero;stroke:none"
         transform="matrix(0.13333333,0,0,-0.13333333,0,686.84)" />
      <path
         id="path56"
         d="m 1647.94,837.371 c 0,0 104.12,-23.351 193.87,-31.891 -26.46,-9.859 -64.16,-42.179 -64.16,-42.179 0,0 -102.77,46.679 -129.71,74.07"
         style="fill:#ffffff;fill-opacity:1;fill-rule:nonzero;stroke:none"
         transform="matrix(0.13333333,0,0,-0.13333333,0,686.84)" />
      <path
         id="path57"
         d="m 1813.08,749.84 c 0,0 81.68,52.5 118.94,50.48 37.25,-2.011 228.42,-6.05 228.42,-6.05 0,0 -119.37,-34.54 -191.17,-100.071 -54.75,14.352 -156.19,55.641 -156.19,55.641"
         style="fill:#ffffff;fill-opacity:1;fill-rule:nonzero;stroke:none"
         transform="matrix(0.13333333,0,0,-0.13333333,0,686.84)" />
      <path
         id="path58"
         d="m 2008.75,684.32 c 0,0 155.29,-34.101 271.07,-80.781 56.54,49.371 213.6,113.082 320.42,129.242 -78.09,25.16 -170.54,34.129 -235.16,43.989 -64.63,9.859 -85.26,16.171 -161.55,-4.481 -76.3,-20.66 -154.38,-55.668 -194.78,-87.969"
         style="fill:#ffffff;fill-opacity:1;fill-rule:nonzero;stroke:none"
         transform="matrix(0.13333333,0,0,-0.13333333,0,686.84)" />
      <path
         id="path59"
         d="m 2316.62,589.191 c 0,0 102.29,-47.562 203.73,-137.32 76.3,83.469 177.71,137.32 356.32,157.961 -75.39,59.227 -159.76,91.566 -201.97,102.34 -78.07,-6.313 -245.91,-45.781 -358.08,-122.981"
         style="fill:#ffffff;fill-opacity:1;fill-rule:nonzero;stroke:none"
         transform="matrix(0.13333333,0,0,-0.13333333,0,686.84)" />
      <path
         id="path60"
         d="m 2543.7,431.211 c 0,0 90.01,-72.652 127.43,-198.352 80.78,15.262 168.75,61.032 205.54,90.653 36.79,29.617 71.8,56.539 76.29,119.379 4.47,62.828 -17.96,101.41 -43.07,134.629 -60.17,2.691 -226.18,-7.18 -366.19,-146.309"
         style="fill:#ffffff;fill-opacity:1;fill-rule:nonzero;stroke:none"
         transform="matrix(0.13333333,0,0,-0.13333333,0,686.84)" />
      <path
         id="path61"
         d="m 2953.54,350.898 c 0,0 3.01,-70.679 -60.27,-115.109 -63.27,-44.43 -207.8,-134.859 -417.82,-134.859 -210.02,0 -364.38,55.629 -469.39,108.601 -100.51,44.879 -239.64,173.231 -306.95,255.801 -67.32,82.57 -131.06,172.77 -131.94,177.25 -0.89,4.5 -3.15,11.699 0,11.227 3.16,-0.457 37.7,-48 73.61,-90.2 35.9,-42.187 170.53,-204.179 420.94,-317.257 250.41,-113.11 455.03,-74.532 553.75,-61.954 98.74,12.571 263.7,77.641 338.07,166.5"
         style="fill:#ee2b21;fill-opacity:1;fill-rule:nonzero;stroke:none"
         transform="matrix(0.13333333,0,0,-0.13333333,0,686.84)" />
      <path
         id="path62"
         d="m 1652.66,728.539 c 23.31,24.68 73.37,13.793 121.84,-39.219 48.46,-53.011 62.81,-113.601 38.58,-127.961 -24.24,-14.367 -76.28,-9.859 -130.13,56.102 -53.85,65.969 -41.73,98.961 -30.29,111.078"
         style="fill:#100f0d;fill-opacity:1;fill-rule:nonzero;stroke:none"
         transform="matrix(0.13333333,0,0,-0.13333333,0,686.84)" />
    </g>
  </g>
</svg>
